<svg width="47" height="48" viewBox="0 0 47 48" fill="none" xmlns="http://www.w3.org/2000/svg">
<g clip-path="url(#clip0_2604_32957)">
<path d="M12.3802 29.0063H8.01745C6.71582 29.0063 5.66064 30.0615 5.66064 31.3632V37.1923C5.66064 38.4939 6.71582 39.5491 8.01745 39.5491H12.3802C13.6818 39.5491 14.737 38.4939 14.737 37.1923V31.3632C14.737 30.0615 13.6818 29.0063 12.3802 29.0063Z" fill="#052161"/>
<path d="M25.5179 22.2734H21.1551C19.8535 22.2734 18.7983 23.3286 18.7983 24.6302V37.1921C18.7983 38.4938 19.8535 39.5489 21.1551 39.5489H25.5179C26.8195 39.5489 27.8747 38.4938 27.8747 37.1921V24.6302C27.8747 23.3286 26.8195 22.2734 25.5179 22.2734Z" fill="#052161"/>
<path d="M36.885 13.5946L39.447 9.15905C39.6291 8.84459 39.4007 8.45068 39.0366 8.45068H33.9158C33.5517 8.45068 33.3233 8.84459 33.5054 9.15905L36.0674 13.5946C36.2494 13.9091 36.7029 13.9091 36.885 13.5946Z" fill="#1659F3"/>
<path d="M41.0126 23.7202V19.4369C41.0126 18.136 39.9567 17.0801 38.6558 17.0801H34.2931C32.9922 17.0801 31.9363 18.136 31.9363 19.4369V23.7202C31.9363 23.9717 32.1382 24.1737 32.3898 24.1737H40.5591C40.8107 24.1737 41.0126 23.9717 41.0126 23.7202Z" fill="#052161"/>
<path d="M40.5623 25.1665H32.3929C32.1425 25.1665 31.9395 25.3695 31.9395 25.62V27.3644C31.9395 27.6149 32.1425 27.8179 32.3929 27.8179H40.5623C40.8128 27.8179 41.0158 27.6149 41.0158 27.3644V25.62C41.0158 25.3695 40.8128 25.1665 40.5623 25.1665Z" fill="#052161"/>
<path d="M31.9395 29.2645V37.1923C31.9395 38.4931 32.9954 39.5491 34.2963 39.5491H38.659C39.9599 39.5491 41.0158 38.4931 41.0158 37.1923V29.2645C41.0158 29.013 40.8139 28.811 40.5623 28.811H32.3929C32.1414 28.811 31.9395 29.013 31.9395 29.2645Z" fill="#052161"/>
</g>
<defs>
<clipPath id="clip0_2604_32957">
<rect width="46.676" height="48" fill="white"/>
</clipPath>
</defs>
</svg>
