<svg width="47" height="48" viewBox="0 0 47 48" fill="none" xmlns="http://www.w3.org/2000/svg">
<g clip-path="url(#clip0_2604_32969)">
<path d="M25.0477 17.1132H16.4149V13.247C16.4149 12.6214 15.6768 12.2871 15.2067 12.7008L4.78317 21.8235C4.45216 22.1148 4.45216 22.6279 4.78317 22.9192L15.2067 32.0419C15.6768 32.4523 16.4149 32.1213 16.4149 31.4957V27.2654H22.6975C23.3331 27.2654 23.8958 26.8582 24.0944 26.2525L26.4479 19.0364C26.7557 18.0864 26.0507 17.1132 25.051 17.1132H25.0477Z" fill="#052161"/>
<path d="M20.6946 29.1986C20.4232 30.0295 21.0422 30.8868 21.9194 30.8868H30.2609V34.753C30.2609 35.3786 30.999 35.713 31.4691 35.2992L41.8926 26.1765C42.2236 25.8852 42.2236 25.3721 41.8926 25.0809L31.4691 15.9582C30.999 15.5477 30.2609 15.8787 30.2609 16.5043V20.7347H23.4553" stroke="#1659F3" stroke-width="1.98607" stroke-linecap="round"/>
</g>
<defs>
<clipPath id="clip0_2604_32969">
<rect width="46.676" height="48" fill="white"/>
</clipPath>
</defs>
</svg>
