<svg width="47" height="48" viewBox="0 0 47 48" fill="none" xmlns="http://www.w3.org/2000/svg">
<g clip-path="url(#clip0_2604_32976)">
<path d="M23.2337 7.73939C24.0271 7.73939 24.6703 7.09621 24.6703 6.3028C24.6703 5.50939 24.0271 4.86621 23.2337 4.86621C22.4403 4.86621 21.7971 5.50939 21.7971 6.3028C21.7971 7.09621 22.4403 7.73939 23.2337 7.73939Z" fill="#1659F3"/>
<path d="M32.5153 15.376C30.6881 13.5488 28.4505 12.3837 26.097 11.8739C25.9778 10.3976 24.7431 9.23242 23.2337 9.23242C21.7243 9.23242 20.4665 10.4208 20.3672 11.9202C18.0931 12.4532 15.9349 13.6018 14.1607 15.376C9.09292 20.4438 9.09292 28.6628 14.1607 33.7306C14.452 34.0219 14.7565 34.2966 15.071 34.5581L15.1438 33.9755C15.1438 33.0123 15.7694 32.1616 16.6863 31.8703L19.5496 30.6555C19.5496 30.6555 21.3205 29.5301 21.3205 28.8846V27.2361C20.9299 26.9151 20.2977 26.5245 19.7217 26.1935C18.8876 25.7135 18.6856 25.6208 18.4473 24.6543L18.2487 23.7241C17.8945 22.0624 17.7621 20.3643 17.8482 18.6696L17.8912 17.8354C17.8912 17.3819 18.1593 16.9715 18.5863 16.7762C18.7916 16.6835 19.0166 16.5908 19.255 16.5014C21.7971 15.5514 24.6174 15.5382 27.1993 16.5014C27.4376 16.5908 27.6627 16.6835 27.8679 16.7762C28.2949 16.9715 28.563 17.3852 28.563 17.8354L28.6061 18.6696C28.6954 20.3643 28.5597 22.0657 28.2055 23.7241L28.0069 24.6543C27.7719 25.6208 27.5667 25.7135 26.7325 26.1935C26.1566 26.5245 25.5276 26.9151 25.1337 27.2361V28.8846C25.1337 29.5301 26.9047 30.6555 26.9047 30.6555L29.7679 31.8703C30.6848 32.1616 31.3104 33.0123 31.3104 33.9755C31.3104 33.9755 31.3402 34.2668 31.3866 34.7236C31.7738 34.4158 32.1479 34.0881 32.5054 33.7306C37.5732 28.6628 37.5732 20.4438 32.5054 15.376H32.5153Z" fill="#052161"/>
<path d="M23.2337 38.7652C24.8223 38.7652 26.1102 37.4773 26.1102 35.8887C26.1102 34.3001 24.8223 33.0122 23.2337 33.0122C21.645 33.0122 20.3572 34.3001 20.3572 35.8887C20.3572 37.4773 21.645 38.7652 23.2337 38.7652Z" fill="#052161"/>
<path d="M24.6703 41.6978C24.6703 40.9034 24.0281 40.2612 23.2337 40.2612C22.4393 40.2612 21.7971 40.9034 21.7971 41.6978C21.7971 42.4923 22.4393 43.1344 23.2337 43.1344C24.0281 43.1344 24.6703 42.4923 24.6703 41.6978Z" fill="#1659F3"/>
</g>
<defs>
<clipPath id="clip0_2604_32976">
<rect width="46.676" height="48" fill="white"/>
</clipPath>
</defs>
</svg>
