<svg width="47" height="48" viewBox="0 0 47 48" fill="none" xmlns="http://www.w3.org/2000/svg">
<g clip-path="url(#clip0_2604_32985)">
<path d="M30.9828 9.50665C28.9404 7.46431 26.2228 6.33887 23.3331 6.33887H23.3298C20.4103 6.33887 17.6761 7.51727 15.6305 9.6556C13.5318 11.8469 12.4031 14.8525 12.5322 17.9011C12.7573 23.1708 15.3392 28.275 16.4381 30.2247C16.9049 31.0522 17.7887 31.5653 18.742 31.5653H27.9275C28.8809 31.5653 29.7647 31.0489 30.2347 30.2147C31.4131 28.1227 34.1539 22.6677 34.1539 17.1563C34.1539 14.2666 33.0284 11.549 30.9828 9.50334V9.50665ZM23.3364 21.9394C20.8108 21.9394 18.7618 19.8905 18.7618 17.3649C18.7618 14.8392 20.8108 12.7903 23.3364 12.7903C25.862 12.7903 27.911 14.8392 27.911 17.3649C27.911 19.8905 25.862 21.9394 23.3364 21.9394Z" fill="#052161"/>
<path d="M18.7583 33.9355H27.9108" stroke="#1659F3" stroke-width="1.98607" stroke-linecap="round"/>
<path d="M20.3108 37.3018H26.3584" stroke="#052161" stroke-width="1.98607" stroke-linecap="round"/>
<path d="M22.6675 40.665H24.0015" stroke="#1659F3" stroke-width="1.98607" stroke-linecap="round"/>
</g>
<defs>
<clipPath id="clip0_2604_32985">
<rect width="46.676" height="48" fill="white"/>
</clipPath>
</defs>
</svg>
