<svg width="47" height="48" viewBox="0 0 47 48" fill="none" xmlns="http://www.w3.org/2000/svg">
<g clip-path="url(#clip0_2604_32924)">
<path d="M11.8735 21.6812H7.07381C5.8709 21.6812 4.89575 22.6563 4.89575 23.8592V30.3172C4.89575 31.5202 5.8709 32.4953 7.07381 32.4953H11.8735C13.0764 32.4953 14.0515 31.5202 14.0515 30.3172V23.8592C14.0515 22.6563 13.0764 21.6812 11.8735 21.6812Z" fill="#052161"/>
<path d="M25.7363 9.44043H20.9366C19.7337 9.44043 18.7585 10.4156 18.7585 11.6185V30.3206C18.7585 31.5236 19.7337 32.4987 20.9366 32.4987H25.7363C26.9392 32.4987 27.9143 31.5236 27.9143 30.3206V11.6185C27.9143 10.4156 26.9392 9.44043 25.7363 9.44043Z" fill="#052161"/>
<path d="M39.5988 16.249H34.7991C33.5962 16.249 32.6211 17.2242 32.6211 18.4271V30.3203C32.6211 31.5232 33.5962 32.4984 34.7991 32.4984H39.5988C40.8017 32.4984 41.7769 31.5232 41.7769 30.3203V18.4271C41.7769 17.2242 40.8017 16.249 39.5988 16.249Z" fill="#052161"/>
<path d="M3.32666 38.5596H43.3493" stroke="#1659F3" stroke-width="1.98607" stroke-linecap="round" stroke-linejoin="round"/>
</g>
<defs>
<clipPath id="clip0_2604_32924">
<rect width="46.676" height="48" fill="white"/>
</clipPath>
</defs>
</svg>
