<svg width="47" height="48" viewBox="0 0 47 48" fill="none" xmlns="http://www.w3.org/2000/svg">
<g clip-path="url(#clip0_2604_32933)">
<path d="M38.639 11.0988L33.6275 7.12008C33.376 6.91816 33.4322 6.51764 33.7334 6.40179L39.685 4.0516C39.9863 3.93244 40.3007 4.18401 40.2544 4.50509L39.3143 10.834C39.268 11.1551 38.8906 11.3008 38.639 11.1022V11.0988Z" fill="#1659F3"/>
<path d="M12.0488 28.7617H7.2491C6.04619 28.7617 5.07104 29.7369 5.07104 30.9398V35.7394C5.07104 36.9424 6.04619 37.9175 7.2491 37.9175H12.0488C13.2517 37.9175 14.2268 36.9424 14.2268 35.7394V30.9398C14.2268 29.7369 13.2517 28.7617 12.0488 28.7617Z" fill="#052161"/>
<path d="M25.9118 25.6997H21.1121C19.9092 25.6997 18.9341 26.6749 18.9341 27.8778V35.7393C18.9341 36.9422 19.9092 37.9173 21.1121 37.9173H25.9118C27.1147 37.9173 28.0899 36.9422 28.0899 35.7393V27.8778C28.0899 26.6749 27.1147 25.6997 25.9118 25.6997Z" fill="#052161"/>
<path d="M39.7744 19.5796H34.9747C33.7718 19.5796 32.7966 20.5547 32.7966 21.7576V35.7396C32.7966 36.9425 33.7718 37.9176 34.9747 37.9176H39.7744C40.9773 37.9176 41.9524 36.9425 41.9524 35.7396V21.7576C41.9524 20.5547 40.9773 19.5796 39.7744 19.5796Z" fill="#052161"/>
<path d="M5.07123 22.9691C6.13155 22.9691 6.9911 22.1096 6.9911 21.0493C6.9911 19.9889 6.13155 19.1294 5.07123 19.1294C4.01092 19.1294 3.15137 19.9889 3.15137 21.0493C3.15137 22.1096 4.01092 22.9691 5.07123 22.9691Z" fill="#1659F3"/>
<path d="M3.49878 43.9814H43.5247" stroke="#052161" stroke-width="1.98607" stroke-linecap="round"/>
<path d="M5.07104 21.0425C8.785 20.9729 18.4671 20.2911 27.5467 15.4219" stroke="#1659F3" stroke-width="1.98607" stroke-linecap="round"/>
<path d="M27.4377 15.488C31.2841 13.4258 35.0212 10.6122 38.1526 6.77246" stroke="#1659F3" stroke-width="1.98607" stroke-linecap="round" stroke-dasharray="0.99 2.98"/>
</g>
<defs>
<clipPath id="clip0_2604_32933">
<rect width="46.676" height="48" fill="white"/>
</clipPath>
</defs>
</svg>
