<svg width="47" height="48" viewBox="0 0 47 48" fill="none" xmlns="http://www.w3.org/2000/svg">
<g clip-path="url(#clip0_2604_32911)">
<path d="M26.9178 26.0674V21.9331L23.3363 19.8643L19.7581 21.9331V26.0674L23.3363 28.1329L26.9178 26.0674Z" fill="#1659F3"/>
<path d="M17.4411 11.0889L17.4312 18.262C17.4312 18.7817 17.9939 19.106 18.4441 18.8479L23.022 16.213C23.0683 16.1766 23.118 16.1468 23.1709 16.1269L29.6588 12.3931C30.195 12.0853 30.1718 11.2975 29.6124 11.0261C27.7157 10.1058 25.5873 9.59277 23.3397 9.59277C21.218 9.59277 19.2087 10.0562 17.3948 10.8771C17.4246 10.94 17.4444 11.0128 17.4444 11.0889H17.4411Z" fill="#052161"/>
<path d="M9.20892 22.6514L15.4154 26.2462C15.8656 26.5077 16.4283 26.1833 16.4283 25.6636L16.4349 20.384C16.425 20.3277 16.425 20.2681 16.4349 20.2152L16.4448 12.731C16.4448 12.1087 15.7497 11.7413 15.2333 12.0888C11.7941 14.4324 9.42408 18.2258 8.99707 22.5918C9.06658 22.5985 9.13941 22.6183 9.20561 22.6547L9.20892 22.6514Z" fill="#052161"/>
<path d="M31.5687 12.4361L25.3523 16.0143C24.9021 16.2725 24.9021 16.9213 25.3523 17.1828L29.9236 19.8276C29.9765 19.8474 30.0262 19.8772 30.0725 19.9136L36.5471 23.664C37.0866 23.9751 37.7553 23.5581 37.7056 22.9358C37.5137 20.5657 36.514 15.723 31.7309 12.2871C31.6912 12.3434 31.6382 12.3963 31.572 12.4328L31.5687 12.4361Z" fill="#052161"/>
<path d="M37.4674 25.3489L31.2609 21.7541C30.8107 21.4926 30.248 21.817 30.248 22.3367L30.2414 27.6163C30.2513 27.6726 30.2513 27.7321 30.2414 27.7851L30.2314 35.2693C30.2314 35.8916 30.9266 36.259 31.4429 35.9114C34.8822 33.5679 37.2522 29.7745 37.6792 25.4084C37.6097 25.4018 37.5369 25.3853 37.4707 25.3455L37.4674 25.3489Z" fill="#052161"/>
<path d="M29.235 36.911L29.2449 29.738C29.2449 29.2183 28.6822 28.8939 28.232 29.1521L23.6442 31.7936C23.6045 31.8234 23.5615 31.8498 23.5184 31.8664L17.0207 35.6068C16.4844 35.9147 16.5076 36.7025 17.067 36.9739C18.9637 37.8941 21.0921 38.4105 23.3397 38.4105C25.4615 38.4105 27.4707 37.9471 29.2847 37.1262C29.2549 37.0633 29.235 36.9905 29.235 36.9143V36.911Z" fill="#052161"/>
<path d="M15.104 35.5605L21.3204 31.9822C21.7706 31.724 21.7706 31.0753 21.3204 30.8138L16.7525 28.169C16.6962 28.1491 16.6465 28.1193 16.6035 28.0829L10.1289 24.3326C9.58938 24.0214 8.92073 24.4385 8.97038 25.0608C9.16237 27.4308 10.162 32.2735 14.9451 35.7094C14.9849 35.6532 15.0378 35.6002 15.104 35.5638V35.5605Z" fill="#052161"/>
</g>
<defs>
<clipPath id="clip0_2604_32911">
<rect width="46.676" height="48" fill="white"/>
</clipPath>
</defs>
</svg>
