<svg width="47" height="48" viewBox="0 0 47 48" fill="none" xmlns="http://www.w3.org/2000/svg">
<g clip-path="url(#clip0_2604_32946)">
<path d="M40.6016 11.4265C40.7042 11.4265 40.787 11.5093 40.787 11.6119C40.787 11.7145 40.7042 11.7972 40.6016 11.7972C40.499 11.7972 40.4162 11.7145 40.4162 11.6119C40.4162 11.5093 40.499 11.4265 40.6016 11.4265ZM40.6016 9.44043C39.4 9.44043 38.4302 10.4136 38.4302 11.6119C38.4302 12.8101 39.4034 13.7833 40.6016 13.7833C41.7999 13.7833 42.773 12.8101 42.773 11.6119C42.773 10.4136 41.7999 9.44043 40.6016 9.44043Z" fill="#052161"/>
<path d="M6.07036 36.1994C6.17298 36.1994 6.25573 36.2822 6.25573 36.3848C6.25573 36.4874 6.17298 36.5702 6.07036 36.5702C5.96775 36.5702 5.885 36.4874 5.885 36.3848C5.885 36.2822 5.96775 36.1994 6.07036 36.1994ZM6.07036 34.2134C4.86879 34.2134 3.89893 35.1866 3.89893 36.3848C3.89893 37.5831 4.8721 38.5563 6.07036 38.5563C7.26862 38.5563 8.2418 37.5831 8.2418 36.3848C8.2418 35.1866 7.26862 34.2134 6.07036 34.2134Z" fill="#052161"/>
<path d="M21.4231 26.0241C26.1897 19.2383 30.5358 11.6118 41.5519 11.6118" stroke="#052161" stroke-width="1.98607"/>
<path d="M5.47827 36.3682C10.3905 36.3682 13.8297 34.5344 16.6334 31.8599" stroke="#052161" stroke-width="1.98607"/>
<path d="M19.2382 33.7631C21.8049 33.7631 23.8856 31.6824 23.8856 29.1157C23.8856 26.549 21.8049 24.4683 19.2382 24.4683C16.6715 24.4683 14.5908 26.549 14.5908 29.1157C14.5908 31.6824 16.6715 33.7631 19.2382 33.7631Z" fill="#1659F3"/>
</g>
<defs>
<clipPath id="clip0_2604_32946">
<rect width="46.676" height="48" fill="white"/>
</clipPath>
</defs>
</svg>
