<svg width="48" height="48" viewBox="0 0 48 48" fill="none" xmlns="http://www.w3.org/2000/svg">
<g clip-path="url(#clip0_3567_29619)">
<path d="M23.998 38.5369V23.7705" stroke="#1659F3" stroke-width="0.993035" stroke-linecap="round" stroke-linejoin="round"/>
<path d="M23.998 23.7702V10.2881" stroke="#1659F3" stroke-width="1.98607" stroke-linecap="round" stroke-linejoin="round"/>
<path d="M26.2755 12.6715H21.7241C21.3997 12.6715 21.1977 12.3206 21.3599 12.0425L23.6373 8.10018C23.7995 7.81882 24.2033 7.81882 24.3655 8.10018L26.6429 12.0425C26.8051 12.3239 26.6032 12.6715 26.2788 12.6715H26.2755Z" fill="#1659F3"/>
<path d="M11.6348 15.4783V20.0298C11.6348 20.3541 11.284 20.5561 11.0059 20.3939L7.06356 18.1165C6.7822 17.9543 6.7822 17.5505 7.06356 17.3883L11.0059 15.1109C11.2873 14.9487 11.6348 15.1506 11.6348 15.475V15.4783Z" fill="#052161"/>
<path d="M19.0994 31.0952C18.0037 31.0952 17.1133 31.9856 17.1133 33.0813C17.1133 34.1769 18.0037 35.0674 19.0994 35.0674C20.195 35.0674 21.0854 34.1769 21.0854 33.0813C21.0854 31.9856 20.195 31.0952 19.0994 31.0952Z" fill="#052161"/>
<path d="M23.9978 40.1123C25.0947 40.1123 25.9839 39.2231 25.9839 38.1262C25.9839 37.0293 25.0947 36.1401 23.9978 36.1401C22.9009 36.1401 22.0117 37.0293 22.0117 38.1262C22.0117 39.2231 22.9009 40.1123 23.9978 40.1123Z" fill="#1659F3"/>
<path d="M19.0996 33.0817V20.9071C19.0996 19.166 17.6894 17.7559 15.9483 17.7559H9.25195" stroke="#052161" stroke-width="1.98607"/>
<path d="M36.3652 15.4783V20.0298C36.3652 20.3541 36.7161 20.5561 36.9942 20.3939L40.9365 18.1165C41.2179 17.9543 41.2179 17.5505 40.9365 17.3883L36.9942 15.1109C36.7128 14.9487 36.3652 15.1506 36.3652 15.475V15.4783Z" fill="#052161"/>
<path d="M28.8972 31.0952C27.8016 31.0952 26.9111 31.9856 26.9111 33.0813C26.9111 34.1769 27.8016 35.0674 28.8972 35.0674C29.9929 35.0674 30.8833 34.1769 30.8833 33.0813C30.8833 31.9856 29.9929 31.0952 28.8972 31.0952Z" fill="#052161"/>
<path d="M28.8975 33.0817V20.9071C28.8975 19.166 30.3076 17.7559 32.0487 17.7559H38.7451" stroke="#052161" stroke-width="1.98607"/>
</g>
<defs>
<clipPath id="clip0_3567_29619">
<rect width="48" height="48" fill="white"/>
</clipPath>
</defs>
</svg>
