<svg width="48" height="48" viewBox="0 0 48 48" fill="none" xmlns="http://www.w3.org/2000/svg">
<g clip-path="url(#clip0_3567_29615)">
<path d="M25.0778 23.9983C26.16 23.9983 27.0373 23.1209 27.0373 22.0387C27.0373 20.9564 26.16 20.0791 25.0778 20.0791C23.9955 20.0791 23.1182 20.9564 23.1182 22.0387C23.1182 23.1209 23.9955 23.9983 25.0778 23.9983Z" fill="#1659F3"/>
<path d="M19.5934 18.4602C20.6756 18.4602 21.553 17.5829 21.553 16.5006C21.553 15.4184 20.6756 14.541 19.5934 14.541C18.5111 14.541 17.6338 15.4184 17.6338 16.5006C17.6338 17.5829 18.5111 18.4602 19.5934 18.4602Z" fill="#1659F3"/>
<path d="M19.5367 23.9783C20.619 23.9783 21.4963 23.1009 21.4963 22.0187C21.4963 20.9364 20.619 20.0591 19.5367 20.0591C18.4545 20.0591 17.5771 20.9364 17.5771 22.0187C17.5771 23.1009 18.4545 23.9783 19.5367 23.9783Z" fill="#1659F3"/>
<path d="M29.5205 9.60254V14.2433C29.5205 14.8027 29.974 15.2562 30.5334 15.2562H34.8432" stroke="#052161" stroke-width="0.993035"/>
<path d="M34.7006 34.4251C34.7006 36.6197 32.9231 38.3972 30.7285 38.3972H17.1206C14.926 38.3972 13.1484 36.6197 13.1484 34.4251V13.5747C13.1484 11.3801 14.926 9.60254 17.1206 9.60254H29.3746L34.6973 14.9252L34.8396 22.7106L23.9162 33.5181L18.9974 28.5265" stroke="#052161" stroke-width="1.98607" stroke-linecap="round" stroke-linejoin="round"/>
</g>
<defs>
<clipPath id="clip0_3567_29615">
<rect width="48" height="48" fill="white"/>
</clipPath>
</defs>
</svg>
