<svg width="48" height="48" viewBox="0 0 48 48" fill="none" xmlns="http://www.w3.org/2000/svg">
<g clip-path="url(#clip0_3567_29627)">
<path d="M31.6615 34.4251C31.6615 36.6197 29.884 38.3972 27.6894 38.3972H14.0815C11.8869 38.3972 10.1094 36.6197 10.1094 34.4251V13.5747C10.1094 11.3801 11.8869 9.60254 14.0815 9.60254H26.3356C29.6126 12.8796 28.3812 11.6482 31.6582 14.9252V24.561" stroke="#052161" stroke-width="1.98607" stroke-linecap="round"/>
<path d="M30.4932 31.3733V27.4409C30.4932 27.1165 30.844 26.9145 31.1221 27.0767L34.5282 29.0429C34.8096 29.2051 34.8096 29.609 34.5282 29.7712L31.1221 31.7374C30.8407 31.8996 30.4932 31.6977 30.4932 31.3733Z" fill="#1659F3"/>
<path d="M15.6436 29.4067H32.7933" stroke="#1659F3" stroke-width="0.993035" stroke-miterlimit="10" stroke-linecap="round"/>
<path d="M35.9713 27.4509C37.0536 27.4509 37.9309 26.5736 37.9309 25.4913C37.9309 24.4091 37.0536 23.5317 35.9713 23.5317C34.8891 23.5317 34.0117 24.4091 34.0117 25.4913C34.0117 26.5736 34.8891 27.4509 35.9713 27.4509Z" fill="#1659F3"/>
<path d="M35.9713 35.2458C37.0536 35.2458 37.9309 34.3685 37.9309 33.2862C37.9309 32.204 37.0536 31.3267 35.9713 31.3267C34.8891 31.3267 34.0117 32.204 34.0117 33.2862C34.0117 34.3685 34.8891 35.2458 35.9713 35.2458Z" fill="#1659F3"/>
<path d="M39.8971 31.3664C40.9793 31.3664 41.8567 30.4891 41.8567 29.4069C41.8567 28.3246 40.9793 27.4473 39.8971 27.4473C38.8148 27.4473 37.9375 28.3246 37.9375 29.4069C37.9375 30.4891 38.8148 31.3664 39.8971 31.3664Z" fill="#1659F3"/>
<path d="M26.4775 9.60254V14.2433C26.4775 14.8027 26.931 15.2562 27.4904 15.2562H31.8002" stroke="#052161" stroke-width="0.993035"/>
<path d="M15.6436 24.647H26.1333" stroke="#052161" stroke-width="0.993035" stroke-linecap="round"/>
<path d="M15.6436 19.8872H26.1333" stroke="#052161" stroke-width="0.993035" stroke-linecap="round"/>
</g>
<defs>
<clipPath id="clip0_3567_29627">
<rect width="48" height="48" fill="white"/>
</clipPath>
</defs>
</svg>
