<svg width="60" height="68" viewBox="0 0 60 68" fill="none" xmlns="http://www.w3.org/2000/svg">
<g clip-path="url(#clip0_2604_31729)">
<g clip-path="url(#clip1_2604_31729)">
<path d="M47.7715 17.331C47.2471 17.2282 46.8862 16.7373 46.8862 16.2023V10.6135L43.4666 15.4848C43.3135 15.703 43.0617 15.8331 42.7953 15.8331C42.5268 15.8331 42.2771 15.703 42.124 15.4848L38.7044 10.6135V16.2023C38.7044 16.7373 38.3436 17.2282 37.8191 17.331C37.1121 17.4673 36.4932 16.9282 36.4932 16.2463V7.35543C36.4932 6.84145 36.8016 6.35473 37.2904 6.19949C37.7855 6.04215 38.3037 6.23306 38.5848 6.63375L42.7953 12.6317L46.9785 6.67571C47.1652 6.41138 47.4422 6.20998 47.7631 6.15963C48.4806 6.04634 49.1016 6.60019 49.1016 7.29669V16.2484C49.1016 16.9303 48.4806 17.4715 47.7736 17.3331L47.7715 17.331ZM31.4352 16.2568V8.36872H34.538C35.1485 8.36872 35.6436 7.87152 35.6436 7.26313C35.6436 6.65473 35.1464 6.15753 34.538 6.15753H26.1191C25.5086 6.15753 25.0135 6.65473 25.0135 7.26313C25.0135 7.87152 25.5107 8.36872 26.1191 8.36872H29.2219V16.2568C29.2219 16.8673 29.7191 17.3624 30.3275 17.3624C30.9359 17.3624 31.4331 16.8652 31.4331 16.2568H31.4352ZM24.1492 16.2463V7.29459C24.1492 6.59809 23.5282 6.04424 22.8107 6.15753C22.4897 6.20788 22.2128 6.40928 22.0261 6.67362L17.8429 12.6296L13.6324 6.63166C13.3492 6.22886 12.8331 6.04005 12.338 6.19739C11.8492 6.35264 11.5408 6.83935 11.5408 7.35334V16.2442C11.5408 16.9261 12.1618 17.4673 12.8666 17.3289C13.3911 17.2261 13.752 16.7352 13.752 16.2002V10.6114L17.1715 15.4827C17.3247 15.7009 17.5764 15.831 17.8429 15.831C18.1114 15.831 18.3611 15.7009 18.5142 15.4827L21.9338 10.6114V16.2002C21.9338 16.7352 22.2946 17.2261 22.8191 17.3289C23.5261 17.4673 24.1471 16.9261 24.1471 16.2442L24.1492 16.2463Z" fill="#43474B"/>
<path d="M34.0575 42.4323C39.1974 39.5393 43.3848 36.0191 46.5002 31.9617L45.3065 31.0449C42.317 34.9365 38.2848 38.3267 33.3212 41.1191L34.0596 42.4323H34.0575Z" fill="#43474B"/>
<path d="M29.8407 27.6691L29.8554 27.6649L29.8911 27.6943L30.3065 28.03H30.317V28.0258L30.6086 27.8013L30.7533 27.6901L30.7827 27.6691C31.8652 26.8258 33.0799 25.6531 34.3827 24.1782L33.254 23.1796C32.482 24.0482 31.754 24.7992 31.068 25.437V23.6517C31.6743 23.0601 32.2324 22.4538 32.7233 21.837L31.5442 20.895C31.1729 21.3608 30.7575 21.8223 30.3107 22.2796C29.8638 21.8286 29.4484 21.3608 29.0771 20.895L27.8981 21.837C28.389 22.4538 28.947 23.0601 29.5533 23.6517V25.437C28.8673 24.7992 28.1393 24.0482 27.3673 23.1796L26.2386 24.1782C27.5477 25.6531 28.7561 26.8258 29.8386 27.6691H29.8407Z" fill="#43474B"/>
<path d="M29.8952 31.2147H29.891L29.9309 31.2398L30.3064 31.5L30.5414 31.3447H30.5456L30.7365 31.2147C33.4743 29.3496 35.7358 27.2685 37.4561 25.0259L38.4694 23.7021L37.2757 22.7832L36.2624 24.107C34.7288 26.1021 32.7274 27.9734 30.3148 29.6727C27.9022 27.9776 25.9008 26.1084 24.3673 24.107L23.354 22.7832L22.1603 23.7021L23.1736 25.0259C24.8938 27.2664 27.1554 29.3496 29.8931 31.2147H29.8952Z" fill="#43474B"/>
<path d="M24.0274 37.5483C24.0631 37.5692 24.1029 37.5986 24.1386 37.6238L24.5099 37.8902L28.5819 35.8343H28.5966C30.7826 34.672 34.9596 32.1587 38.3812 28.3678L37.2631 27.3608C35.012 29.8573 32.4085 31.7748 30.3169 33.0881C27.8288 31.5294 25.6575 29.7776 23.8575 27.8832L22.7645 28.9217C24.4952 30.7427 26.5449 32.4315 28.8735 33.9524C28.5169 34.158 28.1854 34.3385 27.8959 34.4895L27.5309 34.6762C26.5281 33.9944 25.5694 33.2769 24.6715 32.5343L23.7127 33.6986C24.4407 34.3007 25.2064 34.8881 25.9994 35.4483L24.6505 36.1301C22.5735 34.6007 20.719 32.9308 19.1288 31.1664L19.1183 31.1769L18.5414 31.6993L18.0106 32.1755L18.0001 32.186C19.7204 34.0972 21.7512 35.9014 24.0232 37.5462L24.0274 37.5566V37.5483Z" fill="#43474B"/>
<path d="M14.8554 32.8702C14.9603 32.996 15.061 33.1219 15.1659 33.2457C15.2603 33.3548 15.3568 33.466 15.447 33.5771C15.533 33.6716 15.6127 33.7723 15.6988 33.8688C15.8099 33.9946 15.919 34.1184 16.0344 34.2401C16.1037 34.3156 16.175 34.3953 16.2442 34.4709C16.3701 34.6051 16.5002 34.7415 16.626 34.8778C16.6869 34.9387 16.7414 34.9974 16.8023 35.0583C16.9428 35.203 17.0876 35.3541 17.2323 35.4988L17.3687 35.6352C17.5281 35.7946 17.6897 35.952 17.8554 36.1072C17.8806 36.1324 17.9099 36.1618 17.9414 36.1869C18.1218 36.3569 18.3023 36.5289 18.4869 36.6988C18.4869 36.6988 18.4974 36.7093 18.5016 36.7135C19.8862 37.9869 21.3946 39.1953 23.0204 40.3303C23.0708 40.366 23.1211 40.4016 23.1715 40.4352C23.333 40.5464 23.4925 40.6555 23.654 40.7667C23.719 40.8107 23.7883 40.8569 23.8554 40.9009C24.2057 41.1359 24.5624 41.3667 24.9274 41.5974C25.2526 41.803 25.5799 41.9981 25.905 42.1953L24.8918 39.7785C24.7071 39.6527 24.5162 39.5268 24.3295 39.403C24.2687 39.3632 24.2037 39.317 24.1449 39.2771C20.9246 37.0555 18.1009 34.4834 15.875 31.7394C15.8603 31.7247 15.8456 31.7037 15.8351 31.689C15.6652 31.4771 15.4995 31.2674 15.3337 31.0513L14.14 31.9681C14.3057 32.1841 14.4757 32.4002 14.6456 32.6142C14.7169 32.7002 14.7862 32.7841 14.8575 32.8702H14.8554Z" fill="#43474B"/>
<path d="M24.961 51.4301L24.9506 51.4196L25.1708 51.5308L25.4163 51.4909C28.5715 50.9496 36.7659 48.9482 44.7589 42.0336L43.2988 41.2972C38.3079 45.4951 33.2897 47.7273 29.5974 48.9042C28.368 48.3776 22.9282 45.9 17.4317 41.3412C17.4065 41.3203 17.3813 41.2951 17.3561 41.2762L15.896 42.0126C16.0869 42.1783 16.282 42.3377 16.4729 42.4993C20.7401 46.0342 24.9988 48.3671 27.3862 49.5356C26.6142 49.7266 25.9471 49.8671 25.41 49.9657C24.5771 49.544 23.7401 49.0888 22.9177 48.6126C20.5596 47.2489 17.0855 45.0734 13.4792 41.6832C14.3561 41.2468 15.7219 40.5608 17.5156 39.6629C23.6247 44.9748 29.717 47.3664 30.0485 47.4965L30.0631 47.4818L30.0778 47.4923L31.2065 46.9804L27.9359 39.3734L29.8911 38.3853H29.9058C31.6009 37.4832 34.1792 35.9538 36.8268 33.7825L35.868 32.6182C33.3254 34.7098 30.8436 36.1783 29.2072 37.0405L26.524 38.3937L25.9722 38.6287L28.8568 45.3147C25.5925 43.7391 18.3799 39.7175 13.0701 32.7965L11.8764 33.7154C13.2715 35.5301 14.7799 37.1496 16.3093 38.5846C13.9072 39.7888 12.3715 40.5566 11.8513 40.8105L10.8988 41.2762L11.6561 42.0231C15.6527 45.965 19.5652 48.4175 22.1624 49.9217C23.0855 50.4587 24.0233 50.9643 24.9568 51.4322L24.961 51.4301Z" fill="#43474B"/>
<path d="M49.733 41.2554L49.7183 41.2659L48.7659 40.8002C48.2393 40.5442 46.7099 39.7764 44.312 38.5743C45.9673 37.0344 47.4505 35.4044 48.7596 33.7051L47.5659 32.7862C45.4386 35.5596 42.8015 38.1379 39.7386 40.4498C37.326 42.2205 35.0246 43.4834 33.319 44.3708L31.5589 40.54C36.1973 38.0184 39.8183 35.2785 42.6127 32.1862L41.4946 31.1792C38.696 34.2778 35.0099 37.0156 30.2267 39.5498L29.5953 39.8813L29.8911 40.5275C30.7743 42.4533 32.5785 46.389 32.5785 46.389C32.5785 46.389 33.3001 46.0722 33.3064 46.0722C35.6078 44.8785 39.4092 42.9128 43.1246 39.6631C44.9036 40.5568 46.2589 41.2386 47.1358 41.675C43.5295 45.0694 40.0554 47.2407 37.6973 48.6065C36.9946 49.0135 36.2876 49.3974 35.5911 49.7645L36.2834 51.103C36.4785 51.0023 36.6736 50.8974 36.875 50.7925C36.94 50.7568 37.005 50.7233 37.0701 50.6876C37.2295 50.6016 37.3911 50.5114 37.5505 50.4275C37.5904 50.4023 37.6302 50.3834 37.6764 50.3624L38.8197 53.5827C37.7204 53.4275 35.8302 53.1023 33.0883 52.4247C33.8309 52.1834 34.347 52.003 34.5379 51.9379L33.8414 50.5848C33.2687 50.7799 31.84 51.2624 30.0799 51.768C25.9973 52.8925 23.3057 53.3771 21.8855 53.5785L22.647 51.6484L21.2477 51.0925L19.5883 55.2841L20.761 55.2191C20.8617 55.2149 22.7225 55.0995 26.654 54.1911C27.6463 53.975 28.6407 53.7254 29.568 53.4736V59.6981H31.0764V53.4589C37.0239 55.0428 39.7764 55.2149 39.898 55.2191L41.0267 55.2799L39.0106 49.5925C41.5932 48.0673 45.2498 45.6862 48.9757 42.0107L49.733 41.2638V41.2554Z" fill="#43474B"/>
<path d="M12.1428 29.8825C11.8072 29.8825 11.5344 29.6097 11.5344 29.2741V26.9223C11.5344 23.8195 14.0561 21.2979 17.1568 21.2979H19.5085C19.8442 21.2979 20.1169 21.5706 20.1169 21.9083C20.1169 22.2461 19.8442 22.5188 19.5085 22.5188H17.1568C14.7295 22.5188 12.7533 24.4951 12.7533 26.9223V29.2741C12.7533 29.6097 12.4806 29.8825 12.1428 29.8825Z" fill="#BCD439"/>
<path d="M48.4932 29.8825C48.1554 29.8825 47.8827 29.6097 47.8827 29.2741V26.9223C47.8827 24.4951 45.9065 22.5188 43.4792 22.5188H41.1275C40.7897 22.5188 40.517 22.2461 40.517 21.9083C40.517 21.5706 40.7897 21.2979 41.1275 21.2979H43.4792C46.5799 21.2979 49.1016 23.8195 49.1016 26.9223V29.2741C49.1016 29.6097 48.8289 29.8825 48.4932 29.8825Z" fill="#BCD439"/>
<path d="M41.2575 58.9972C40.9197 58.9972 40.647 58.7245 40.647 58.3867C40.647 58.049 40.9197 57.7762 41.2575 57.7762H43.6071C46.0365 57.7762 48.0127 55.8 48.0127 53.3727V51.021C48.0127 50.6853 48.2854 50.4126 48.6211 50.4126C48.9568 50.4126 49.2316 50.6853 49.2316 51.021V53.3727C49.2316 56.4755 46.7099 58.9972 43.6071 58.9972H41.2575Z" fill="#BCD439"/>
<path d="M17.287 58.9972C14.1842 58.9972 11.6625 56.4755 11.6625 53.3727V51.021C11.6625 50.6853 11.9352 50.4126 12.273 50.4126C12.6107 50.4126 12.8814 50.6853 12.8814 51.021V53.3727C12.8814 55.8 14.8576 57.7762 17.287 57.7762H19.6366C19.9744 57.7762 20.2471 58.049 20.2471 58.3867C20.2471 58.7245 19.9744 58.9972 19.6366 58.9972H17.287Z" fill="#BCD439"/>
</g>
</g>
<defs>
<clipPath id="clip0_2604_31729">
<rect width="60" height="68" fill="white"/>
</clipPath>
<clipPath id="clip1_2604_31729">
<rect width="60" height="67.3427" fill="white" transform="translate(0.158691)"/>
</clipPath>
</defs>
</svg>
