<svg width="60" height="69" viewBox="0 0 60 69" fill="none" xmlns="http://www.w3.org/2000/svg">
<path d="M45.2676 28.1705C44.744 28.0679 44.3838 27.5778 44.3838 27.0437V21.464L40.9698 26.3274C40.8169 26.5452 40.5656 26.6751 40.2996 26.6751C40.0315 26.6751 39.7823 26.5452 39.6294 26.3274L36.2154 21.464V27.0437C36.2154 27.5778 35.8551 28.0679 35.3315 28.1705C34.6257 28.3067 34.0078 27.7684 34.0078 27.0877V18.2114C34.0078 17.6982 34.3157 17.2123 34.8037 17.0573C35.298 16.9002 35.8153 17.0908 36.096 17.4909L40.2996 23.4789L44.4759 17.5327C44.6623 17.2688 44.9388 17.0678 45.2593 17.0175C45.9756 16.9044 46.5955 17.4573 46.5955 18.1527V27.0898C46.5955 27.7705 45.9756 28.3108 45.2697 28.1726L45.2676 28.1705ZM28.9581 27.1002V19.2251H32.0558C32.6653 19.2251 33.1596 18.7287 33.1596 18.1213C33.1596 17.5139 32.6632 17.0175 32.0558 17.0175H23.6507C23.0412 17.0175 22.5469 17.5139 22.5469 18.1213C22.5469 18.7287 23.0433 19.2251 23.6507 19.2251H26.7484V27.1002C26.7484 27.7097 27.2448 28.204 27.8522 28.204C28.4596 28.204 28.956 27.7076 28.956 27.1002H28.9581ZM21.684 27.0877V18.1506C21.684 17.4553 21.0641 16.9023 20.3478 17.0154C20.0273 17.0657 19.7508 17.2668 19.5644 17.5307L15.3881 23.4768L11.1845 17.4888C10.9017 17.0866 10.3865 16.8981 9.89221 17.0552C9.4042 17.2102 9.09631 17.6961 9.09631 18.2093V27.0856C9.09631 27.7663 9.71627 28.3067 10.42 28.1684C10.9436 28.0658 11.3039 27.5757 11.3039 27.0416V21.462L14.7178 26.3253C14.8707 26.5431 15.1221 26.673 15.3881 26.673C15.6562 26.673 15.9054 26.5431 16.0583 26.3253L19.4723 21.462V27.0416C19.4723 27.5757 19.8325 28.0658 20.3561 28.1684C21.062 28.3067 21.6819 27.7663 21.6819 27.0856L21.684 27.0877Z" fill="#ADADAD"/>
<path d="M41.7628 50.3713C42.7288 50.1433 43.327 49.1755 43.099 48.2095C42.871 47.2436 41.9032 46.6454 40.9372 46.8733C39.9713 47.1013 39.373 48.0692 39.601 49.0351C39.829 50.0011 40.7969 50.5993 41.7628 50.3713Z" fill="#ADADAD"/>
<path d="M12.1941 32.2883C12.1941 33.3377 13.0444 34.188 14.0937 34.188H18.3957C18.4607 34.188 18.513 34.2404 18.513 34.3053V43.7639C18.513 45.3389 17.2312 46.6207 15.6562 46.6207C14.0812 46.6207 12.7993 45.3389 12.7993 43.7639C12.7993 42.7146 11.949 41.8642 10.8997 41.8642C9.85035 41.8642 9 42.7146 9 43.7639C9 47.869 12.7344 51.1175 16.982 50.2902C20.1425 49.6766 22.3103 46.7192 22.3103 43.5V31.1469C22.3103 30.728 21.971 30.3887 21.5521 30.3887H14.0916C13.0423 30.3887 12.192 31.239 12.192 32.2883H12.1941Z" fill="#ADADAD"/>
<path d="M50.0849 45.6636L46.8175 42.4192L46.2604 42.2266L45.4645 41.3741C46.185 40.4777 46.5808 39.3655 46.5808 38.2052C46.5808 35.4175 44.3125 33.1492 41.5248 33.1492C40.1152 33.1492 38.8376 33.7314 37.9202 34.6656C36.8185 32.125 34.2067 30.3887 31.2892 30.3887H24.5513C24.1324 30.3887 23.7931 30.728 23.7931 31.1469V48.5204C23.7931 49.6032 24.7 50.4745 25.7954 50.418C26.8217 50.3635 27.5924 49.442 27.5924 48.4136V34.3053C27.5924 34.2425 27.6448 34.1901 27.7076 34.1901H31.4965C33.3543 34.1901 34.8456 35.7924 34.6612 37.6879C34.5 39.3404 33.015 40.5489 31.3562 40.5489H30.2294C29.2638 40.5489 28.4135 41.282 28.3318 42.3208C28.2899 42.8612 28.5098 43.3911 28.8805 43.7869L34.5272 49.819C34.9021 50.219 35.4069 50.4201 35.9137 50.4201C36.3515 50.4201 36.7892 50.2693 37.1453 49.9656C37.9768 49.2556 37.9684 47.9361 37.2228 47.1381L34.1272 43.8309C35.476 43.2801 36.6154 42.3187 37.3882 41.1018C38.3035 42.4046 39.8136 43.2591 41.5248 43.2591C42.4526 43.2591 43.3491 43.0099 44.1345 42.5344L45.0288 43.4581L45.2089 44.0215L48.4784 47.2679C48.7276 47.5172 49.0628 47.6596 49.3958 47.6596C49.6911 47.6596 49.9634 47.5486 50.1644 47.3496C50.3844 47.1297 50.4933 46.8281 50.4702 46.5014C50.4493 46.1914 50.3111 45.894 50.0807 45.6636H50.0849ZM41.5269 41.9752C39.445 41.9752 37.7569 40.2871 37.7569 38.2052C37.7569 36.1233 39.445 34.4352 41.5269 34.4352C43.6088 34.4352 45.2969 36.1233 45.2969 38.2052C45.2969 40.2871 43.6088 41.9752 41.5269 41.9752Z" fill="#ADADAD"/>
<path d="M42.9511 37.8764H41.8536V36.7768C41.8536 36.5694 41.707 36.4019 41.5268 36.4019C41.3467 36.4019 41.198 36.5694 41.198 36.7768V37.8764H40.0984C39.8911 37.8764 39.7235 38.023 39.7235 38.2031C39.7235 38.3832 39.8911 38.5298 40.0984 38.5298H41.198V39.6294C41.198 39.8368 41.3446 40.0043 41.5268 40.0043C41.7091 40.0043 41.8536 39.8347 41.8536 39.6294V38.5298H42.9511C43.1584 38.5298 43.326 38.3832 43.326 38.2031C43.326 38.023 43.1584 37.8764 42.9511 37.8764Z" fill="#ADADAD"/>
</svg>
