<svg width="60" height="68" viewBox="0 0 60 68" fill="none" xmlns="http://www.w3.org/2000/svg">
<g clip-path="url(#clip0_2604_31627)">
<g clip-path="url(#clip1_2604_31627)">
<path d="M47.6128 17.331C47.0884 17.2282 46.7275 16.7373 46.7275 16.2023V10.6135L43.308 15.4848C43.1548 15.703 42.9031 15.8331 42.6366 15.8331C42.3681 15.8331 42.1184 15.703 41.9653 15.4848L38.5457 10.6135V16.2023C38.5457 16.7373 38.1849 17.2282 37.6604 17.331C36.9534 17.4673 36.3345 16.9282 36.3345 16.2463V7.35543C36.3345 6.84145 36.6429 6.35473 37.1317 6.19949C37.6205 6.04424 38.145 6.23306 38.4261 6.63375L42.6366 12.6317L46.8198 6.67571C47.0066 6.41138 47.2835 6.20998 47.6045 6.15963C48.3219 6.04634 48.9429 6.60019 48.9429 7.29669V16.2484C48.9429 16.9303 48.3219 17.4715 47.6149 17.3331L47.6128 17.331ZM31.2765 16.2568V8.36872H34.3793C34.9898 8.36872 35.4849 7.87152 35.4849 7.26313C35.4849 6.65473 34.9877 6.15753 34.3793 6.15753H25.9604C25.3499 6.15753 24.8548 6.65473 24.8548 7.26313C24.8548 7.87152 25.352 8.36872 25.9604 8.36872H29.0632V16.2568C29.0632 16.8673 29.5604 17.3624 30.1688 17.3624C30.7772 17.3624 31.2744 16.8652 31.2744 16.2568H31.2765ZM23.9905 16.2463V7.29459C23.9905 6.59809 23.3695 6.04424 22.652 6.15753C22.331 6.20788 22.0541 6.40928 21.8674 6.67362L17.6842 12.6296L13.4737 6.63166C13.1905 6.22886 12.6744 6.04005 12.1793 6.19739C11.6905 6.35264 11.3821 6.83935 11.3821 7.35334V16.2442C11.3821 16.9261 12.0031 17.4673 12.708 17.3289C13.2324 17.2261 13.5933 16.7352 13.5933 16.2002V10.6114L17.0128 15.4827C17.166 15.7009 17.4177 15.831 17.6842 15.831C17.9527 15.831 18.2024 15.7009 18.3555 15.4827L21.7751 10.6114V16.2002C21.7751 16.7352 22.1359 17.2261 22.6604 17.3289C23.3674 17.4673 23.9884 16.9261 23.9884 16.2442L23.9905 16.2463Z" fill="#43474B"/>
<path d="M15.7876 59.8175V27.4195H11.2561V21.0146H18.989C20.7512 21.0146 22.1925 22.4559 22.1925 24.2181V59.8195H15.7876V59.8175Z" fill="#43474B"/>
<path d="M39.6553 31.5064H37.27V29.1211C37.27 28.6701 36.9511 28.3071 36.5588 28.3071C36.1644 28.3071 35.8476 28.6722 35.8476 29.1211V31.5064H33.4602C33.0113 31.5064 32.6462 31.8253 32.6462 32.2176C32.6462 32.6099 33.0113 32.9288 33.4602 32.9288H35.8476V35.3183C35.8476 35.7673 36.1665 36.1344 36.5588 36.1344C36.9511 36.1344 37.27 35.7673 37.27 35.3183V32.9288H39.6553C40.1043 32.9288 40.4693 32.612 40.4693 32.2176C40.4693 31.8232 40.1043 31.5064 39.6553 31.5064Z" fill="#BED63A"/>
<path d="M39.9533 37.2438C38.9421 37.9256 37.7736 38.2969 36.5568 38.2969C33.2043 38.2969 30.4771 35.5697 30.4771 32.2193C30.4771 28.869 33.2043 26.1396 36.5568 26.1396C39.9092 26.1396 42.6344 28.8669 42.6344 32.2193C42.6344 33.4382 42.2631 34.6067 41.5813 35.6158L45.6869 39.7214L45.7141 39.6879C47.4659 37.5396 48.3931 34.9592 48.3931 32.2214C48.3931 25.6927 43.0834 20.3809 36.5547 20.3809C30.026 20.3809 24.7162 25.6927 24.7162 32.2214C24.7162 34.9676 25.6792 37.6256 27.433 39.7508C25.3771 42.0186 24.2505 44.9305 24.2505 47.9955C24.2505 54.7802 29.7701 60.2997 36.5547 60.2997C43.3393 60.2997 48.8589 54.7802 48.8589 47.9955C48.8589 47.3515 48.7666 46.6592 48.6071 45.9039L39.9491 37.2459L39.9533 37.2438ZM36.5568 54.9018C32.8099 54.9018 29.7596 51.8515 29.7596 48.1046C29.7596 44.3578 32.8099 41.3074 36.5568 41.3074C40.3036 41.3074 43.354 44.3578 43.354 48.1046C43.354 51.8515 40.3036 54.9018 36.5568 54.9018Z" fill="#43474B"/>
</g>
</g>
<defs>
<clipPath id="clip0_2604_31627">
<rect width="60" height="68" fill="white"/>
</clipPath>
<clipPath id="clip1_2604_31627">
<rect width="60" height="67.3427" fill="white"/>
</clipPath>
</defs>
</svg>
