<svg width="60" height="68" viewBox="0 0 60 68" fill="none" xmlns="http://www.w3.org/2000/svg">
<g clip-path="url(#clip0_2604_31687)">
<path d="M41.7325 56.6558C41.2626 56.5635 40.9416 56.125 40.9416 55.6467V50.6579L37.8871 55.0068C37.7507 55.2019 37.5262 55.3194 37.2871 55.3194C37.0479 55.3194 36.8234 55.204 36.6871 55.0068L33.6325 50.6579V55.6467C33.6325 56.125 33.3115 56.5635 32.8416 56.6537C32.2101 56.7754 31.6563 56.2949 31.6563 55.6844V47.746C31.6563 47.2865 31.9311 46.8523 32.3696 46.7138C32.808 46.5753 33.2738 46.7432 33.5255 47.1019L37.285 52.4579L41.0192 47.1397C41.185 46.9026 41.4325 46.7243 41.7199 46.6781C42.3598 46.5774 42.9136 47.0705 42.9136 47.6935V55.6844C42.9136 56.2928 42.3598 56.7754 41.7283 56.6537L41.7325 56.6558ZM27.1458 55.697V48.6544H29.9171C30.4626 48.6544 30.9052 48.2117 30.9052 47.6663C30.9052 47.1208 30.4626 46.6781 29.9171 46.6781H22.4003C21.8549 46.6781 21.4122 47.1208 21.4122 47.6663C21.4122 48.2117 21.8549 48.6544 22.4003 48.6544H25.1717V55.697C25.1717 56.2425 25.6143 56.6851 26.1598 56.6851C26.7052 56.6851 27.1479 56.2425 27.1479 55.697H27.1458ZM20.6381 55.6865V47.6956C20.6381 47.0746 20.0843 46.5795 19.4423 46.6802C19.157 46.7264 18.9094 46.9047 18.7416 47.1418L15.0073 52.46L11.2479 47.104C10.9961 46.7453 10.5346 46.5753 10.0919 46.7159C9.65558 46.8544 9.37866 47.2907 9.37866 47.7481V55.6865C9.37866 56.2949 9.93251 56.7774 10.564 56.6558C11.0339 56.5656 11.3549 56.125 11.3549 55.6488V50.66L14.4094 55.0089C14.5458 55.204 14.7703 55.3215 15.0094 55.3215C15.2486 55.3215 15.4731 55.2061 15.6094 55.0089L18.664 50.66V55.6488C18.664 56.1271 18.985 56.5656 19.4549 56.6579C20.0864 56.7816 20.6402 56.2991 20.6402 55.6886L20.6381 55.6865Z" fill="#43474B"/>
<path d="M17.1409 11.9203C18.1211 11.9203 18.9157 11.1256 18.9157 10.1454C18.9157 9.16522 18.1211 8.37061 17.1409 8.37061C16.1607 8.37061 15.3661 9.16522 15.3661 10.1454C15.3661 11.1256 16.1607 11.9203 17.1409 11.9203Z" fill="#43474B"/>
<path d="M24.0409 16.4476C25.0211 16.4476 25.8158 15.653 25.8158 14.6728C25.8158 13.6926 25.0211 12.8979 24.0409 12.8979C23.0607 12.8979 22.2661 13.6926 22.2661 14.6728C22.2661 15.653 23.0607 16.4476 24.0409 16.4476Z" fill="#43474B"/>
<path d="M16.8744 12.6797H17.4094C19.0353 12.6797 20.3528 13.9972 20.3528 15.623V23.9622C20.3528 24.1951 20.5416 24.3818 20.7723 24.3818H20.8479C21.0807 24.3818 21.2674 24.193 21.2674 23.9622V19.7286C21.2674 18.3356 22.3961 17.2049 23.7912 17.2049H24.2507C25.6437 17.2049 26.7744 18.3335 26.7744 19.7286V23.9664V25.8377C26.7744 26.0706 26.9632 26.2573 27.194 26.2573H27.2695C27.5024 26.2573 27.6891 26.0685 27.6891 25.8377V25.6993C27.8045 24.0293 29.2017 22.7077 30.901 22.7077C32.6737 22.7077 34.1129 24.1447 34.1129 25.9195V27.044C34.1129 29.8216 32.9905 32.3349 31.1758 34.1601L30.2381 33.7867L30.2024 32.4314L27.3409 33.6356L28.1842 28.7349L26.3402 29.5762L24.0199 26.9307L21.6996 29.5762L19.8556 28.7349L20.6989 33.6356L17.8374 32.4314L17.8017 33.7867L16.8639 34.1601C15.0493 32.3349 13.9269 29.8216 13.9269 27.044V23.9685V15.623C13.9269 13.9972 15.2444 12.6797 16.8702 12.6797H16.8744Z" fill="#43474B"/>
<path d="M30.9158 21.9463C31.8948 21.9463 32.6885 21.1527 32.6885 20.1736C32.6885 19.1946 31.8948 18.4009 30.9158 18.4009C29.9367 18.4009 29.1431 19.1946 29.1431 20.1736C29.1431 21.1527 29.9367 21.9463 30.9158 21.9463Z" fill="#43474B"/>
<path d="M29.7765 35.3244C28.1465 36.4552 26.1744 37.1265 24.0409 37.1265C21.9157 37.1265 19.9499 36.4636 18.3262 35.3412C18.6681 35.4461 21.1814 36.1971 22.8534 36.1971C24.0094 34.0636 24.0241 30.9775 24.0241 30.9775C24.0241 30.9775 24.0409 34.0615 25.1947 36.1971C26.9674 36.1971 29.7094 35.3454 29.7786 35.3244H29.7765Z" fill="#BED63A"/>
<path d="M52.266 42.7468L43.3542 36.5558C42.4101 35.8992 41.2353 35.851 40.2639 36.3041L37.587 34.4433L37.4968 34.5293C38.7619 32.2635 39.473 29.6894 39.473 27.044C39.473 24.1845 38.6842 21.3901 37.1905 18.9628C36.7395 18.2307 35.7807 18.002 35.0486 18.4531C34.3164 18.902 34.0877 19.8628 34.5388 20.595C35.7304 22.5314 36.3598 24.7614 36.3598 27.0461C36.3598 33.8433 30.8297 39.3733 24.0325 39.3733C17.2353 39.3733 11.7052 33.8433 11.7052 27.0461V18.6335C11.7052 18.2097 11.3465 18.2517 11.1514 18.5496C9.49402 21.0586 8.59192 24.0083 8.59192 27.044C8.59192 35.5593 15.5192 42.4845 24.0325 42.4845C28.8849 42.4845 33.0283 40.288 35.7996 36.9901L38.4912 38.8593C38.4052 39.9272 38.8605 41.0118 39.8045 41.6684L48.7164 47.8593C49.4213 48.3503 50.2605 48.5076 51.0451 48.367C51.8297 48.2265 52.5598 47.7859 53.0507 47.0789C54.0325 45.667 53.6821 43.7265 52.2702 42.7468H52.266Z" fill="#43474B"/>
</g>
<defs>
<clipPath id="clip0_2604_31687">
<rect width="60" height="61.4685" fill="white" transform="translate(0 3.76562)"/>
</clipPath>
</defs>
</svg>
