<svg width="48" height="48" viewBox="0 0 48 48" fill="none" xmlns="http://www.w3.org/2000/svg">
<g clip-path="url(#clip0_3346_21802)">
<path d="M23.9987 40.0193V38.3875" stroke="#112255" stroke-width="1.98607" stroke-linecap="round" stroke-linejoin="round"/>
<path d="M23.9987 7.63989V21.2445" stroke="#112255" stroke-width="1.98607" stroke-linecap="round" stroke-linejoin="round"/>
<path d="M15.2435 15.7959H10.5465C9.61228 15.7959 8.85498 16.5532 8.85498 17.4874V22.1844C8.85498 23.1186 9.61228 23.8759 10.5465 23.8759H15.2435C16.1777 23.8759 16.935 23.1186 16.935 22.1844V17.4874C16.935 16.5532 16.1777 15.7959 15.2435 15.7959Z" stroke="#112255" stroke-width="1.98607" stroke-linecap="round" stroke-linejoin="round"/>
<path d="M26.9943 25.1306H21.003C20.0688 25.1306 19.3115 25.8879 19.3115 26.8221V32.8134C19.3115 33.7476 20.0688 34.5049 21.003 34.5049H26.9943C27.9285 34.5049 28.6858 33.7476 28.6858 32.8134V26.8221C28.6858 25.8879 27.9285 25.1306 26.9943 25.1306Z" fill="#2E6AF5"/>
<path d="M12.8966 28.4075V40.0194" stroke="#112255" stroke-width="1.98607" stroke-linecap="round" stroke-linejoin="round"/>
<path d="M12.8966 7.63989V11.2645" stroke="#112255" stroke-width="1.98607" stroke-linecap="round" stroke-linejoin="round"/>
<path d="M35.1041 31.1184V40.3603" stroke="#112255" stroke-width="1.98607" stroke-linecap="round" stroke-linejoin="round"/>
<path d="M35.1041 7.97754V13.9755" stroke="#112255" stroke-width="1.98607" stroke-linecap="round" stroke-linejoin="round"/>
<path d="M37.451 18.4607H32.754C31.8198 18.4607 31.0625 19.218 31.0625 20.1522V24.8492C31.0625 25.7834 31.8198 26.5407 32.754 26.5407H37.451C38.3852 26.5407 39.1425 25.7834 39.1425 24.8492V20.1522C39.1425 19.218 38.3852 18.4607 37.451 18.4607Z" stroke="#112255" stroke-width="1.98607" stroke-linecap="round" stroke-linejoin="round"/>
</g>
<defs>
<clipPath id="clip0_3346_21802">
<rect width="48" height="48" fill="white"/>
</clipPath>
</defs>
</svg>
