<svg width="48" height="48" viewBox="0 0 48 48" fill="none" xmlns="http://www.w3.org/2000/svg">
<g clip-path="url(#clip0_3346_21746)">
<path d="M17.8582 21.1417H8.20921C7.00433 21.1417 6.02454 20.1652 6.02454 18.957V14.2401C6.02454 13.0352 7.00102 12.0554 8.20921 12.0554H23.9819C25.1868 12.0554 26.1666 13.0319 26.1666 14.2401" stroke="#112255" stroke-width="1.98607" stroke-linecap="round" stroke-linejoin="round"/>
<path d="M39.7879 27.5799C40.9928 27.5799 41.9726 26.6034 41.9726 25.3952V20.6783C41.9726 19.4734 40.9961 18.4937 39.7879 18.4937H24.0152C22.8104 18.4937 21.8306 19.4701 21.8306 20.6783V25.3952C21.8306 26.6001 22.8071 27.5799 24.0152 27.5799" stroke="#2E6AF5" stroke-width="1.98607" stroke-linecap="round"/>
<path d="M38.1461 31.0193L37.5139 30.8439C36.9578 30.6883 36.3818 31.0127 36.2263 31.5688L35.9946 32.3996L36.3752 31.0358C36.5308 30.4798 36.2064 29.9038 35.6503 29.7482L35.0677 29.586C34.5083 29.4304 33.9324 29.7581 33.7801 30.3176L33.4094 31.678L33.9886 29.5728C34.1409 29.02 33.7569 28.3414 33.2041 28.1892L32.7738 28.07C32.1747 27.9045 31.5491 28.2554 31.3836 28.8545L30.801 30.9498L32.6646 24.2766C32.8499 23.6179 32.4792 22.8632 31.8238 22.6679C31.0956 22.4527 30.3343 22.8764 30.129 23.6046L27.6001 32.3069L28.7255 28.4341L28.4409 28.3547C28.1065 28.262 27.7457 28.3348 27.471 28.55L25.2598 31.6284C24.9057 32.1249 24.8064 32.7571 24.9917 33.3364C25.2334 34.0845 25.7696 35.8852 26.0377 36.7888C26.1403 37.1397 26.1437 37.5104 26.0443 37.8613L25.8126 38.6955C25.5081 39.7878 26.147 40.9199 27.2393 41.2244L31.4299 42.3962C33.7999 43.0582 36.2594 41.6713 36.9214 39.3012L38.8744 32.3102C39.0299 31.7541 38.7055 31.1782 38.1494 31.0226L38.1461 31.0193Z" stroke="#112255" stroke-width="1.32405" stroke-linecap="round" stroke-linejoin="round"/>
<path d="M18.6462 24.2964H11.4666" stroke="#2E6AF5" stroke-width="0.993035" stroke-miterlimit="10" stroke-linecap="round"/>
<path d="M18.6462 26.6233H7.2395" stroke="#2E6AF5" stroke-width="0.993035" stroke-miterlimit="10" stroke-linecap="round"/>
</g>
<defs>
<clipPath id="clip0_3346_21746">
<rect width="48" height="48" fill="white"/>
</clipPath>
</defs>
</svg>
