<svg width="48" height="48" viewBox="0 0 48 48" fill="none" xmlns="http://www.w3.org/2000/svg">
<g clip-path="url(#clip0_3346_21756)">
<path d="M36.5438 27.6594V23.3364C36.5438 15.0346 29.8143 8.30518 21.5126 8.30518C13.2108 8.30518 6.48132 15.0346 6.48132 23.3364C6.48132 31.6382 13.2108 38.3677 21.5126 38.3677H25.8786" stroke="#112255" stroke-width="1.98607" stroke-linecap="round"/>
<path d="M23.813 12.1648C23.0715 12.0125 22.3003 11.9331 21.5158 11.9331C15.2166 11.9331 10.1091 17.0406 10.1091 23.3398C10.1091 29.6389 15.2166 34.7464 21.5158 34.7464H28.7021" stroke="#2E6AF5" stroke-width="1.98607" stroke-linecap="round"/>
<path d="M32.9225 23.4954C32.9324 22.7373 32.8662 21.9661 32.7172 21.1948C32.4657 19.884 32.0022 18.6725 31.3667 17.5835" stroke="#2E6AF5" stroke-width="1.98607" stroke-linecap="round"/>
<path d="M21.5158 19.0134C23.9024 19.0134 25.8421 20.9531 25.8421 23.3397C25.8421 25.7263 23.9024 27.6661 21.5158 27.6661C19.1292 27.6661 17.1894 25.7263 17.1894 23.3397C17.1894 20.9531 19.1292 19.0134 21.5158 19.0134ZM21.5158 17.0273C18.0302 17.0273 15.2034 19.8542 15.2034 23.3397C15.2034 26.8253 18.0302 29.6521 21.5158 29.6521C25.0013 29.6521 27.8282 26.8253 27.8282 23.3397C27.8282 19.8542 25.0013 17.0273 21.5158 17.0273Z" fill="#112255"/>
<path d="M22.2706 18.6063L24.4983 19.3014C24.5744 19.3246 24.6406 19.371 24.687 19.4338L26.1732 21.41C26.3619 21.6616 26.7591 21.5821 26.8352 21.2776L28.6889 14.0847C28.7749 13.7438 28.391 13.4823 28.1063 13.6875L22.1646 17.941C21.9131 18.1197 21.976 18.5136 22.2706 18.603V18.6063Z" fill="#112255"/>
<path d="M31.0919 31.1184H41.5155" stroke="#112255" stroke-width="1.98607" stroke-linecap="round"/>
<path d="M33.0581 34.7432H39.5492" stroke="#2E6AF5" stroke-width="1.98607" stroke-linecap="round"/>
<path d="M35.1469 38.3677H37.4606" stroke="#112255" stroke-width="1.98607" stroke-linecap="round"/>
</g>
<defs>
<clipPath id="clip0_3346_21756">
<rect width="48" height="48" fill="white"/>
</clipPath>
</defs>
</svg>
