<svg width="48" height="48" viewBox="0 0 48 48" fill="none" xmlns="http://www.w3.org/2000/svg">
<g clip-path="url(#clip0_3346_21780)">
<path d="M32.3697 15.0183H37.0667C38.0009 15.0183 38.7582 14.261 38.7582 13.3268V8.62979C38.7582 7.69561 38.0009 6.93832 37.0667 6.93832H32.3697C31.4355 6.93832 30.6782 7.69561 30.6782 8.62979V13.3268C30.6782 14.261 31.4355 15.0183 32.3697 15.0183Z" stroke="#112255" stroke-width="1.98607" stroke-linecap="round" stroke-linejoin="round"/>
<path d="M32.3697 28.0403H37.0667C38.0009 28.0403 38.7582 27.283 38.7582 26.3488V21.6518C38.7582 20.7176 38.0009 19.9603 37.0667 19.9603H32.3697C31.4355 19.9603 30.6782 20.7176 30.6782 21.6518V26.3488C30.6782 27.283 31.4355 28.0403 32.3697 28.0403Z" stroke="#112255" stroke-width="1.98607" stroke-linecap="round" stroke-linejoin="round"/>
<path d="M32.3697 41.0623H37.0667C38.0009 41.0623 38.7582 40.305 38.7582 39.3708V34.6737C38.7582 33.7396 38.0009 32.9823 37.0667 32.9823H32.3697C31.4355 32.9823 30.6782 33.7396 30.6782 34.6737V39.3708C30.6782 40.305 31.4355 41.0623 32.3697 41.0623Z" stroke="#112255" stroke-width="1.98607" stroke-linecap="round" stroke-linejoin="round"/>
<path d="M25.3853 10.6655H19.9997C17.6826 10.6655 15.8025 12.5457 15.8025 14.8628V32.9128C15.8025 35.2299 17.6826 37.11 19.9997 37.11H25.3853" stroke="#2E6AF5" stroke-width="1.98607" stroke-linecap="round"/>
<path d="M25.9347 23.886H7.85815" stroke="#2E6AF5" stroke-width="1.98607" stroke-linecap="round"/>
<path d="M7.85814 25.872C8.95502 25.872 9.84421 24.9828 9.84421 23.886C9.84421 22.7891 8.95502 21.8999 7.85814 21.8999C6.76126 21.8999 5.87207 22.7891 5.87207 23.886C5.87207 24.9828 6.76126 25.872 7.85814 25.872Z" fill="#2E6AF5"/>
</g>
<defs>
<clipPath id="clip0_3346_21780">
<rect width="48" height="48" fill="white"/>
</clipPath>
</defs>
</svg>
