<svg width="48" height="48" viewBox="0 0 48 48" fill="none" xmlns="http://www.w3.org/2000/svg">
<g clip-path="url(#clip0_2295_29480)">
<path d="M31.1057 39.5363C26.4009 44.1945 17.5365 42.8748 11.3076 36.5851C5.07884 30.2953 3.84527 21.42 8.55004 16.7583" stroke="#052161" stroke-width="2.42052" stroke-linejoin="round"/>
<path d="M30.4495 22.1799C34.7921 28.1541 35.226 35.4623 31.1057 39.5395C26.4009 44.1977 17.5365 42.8781 11.3076 36.5883C5.07884 30.2985 3.84527 21.4233 8.55004 16.7615C12.6416 12.7094 19.8709 13.1792 25.7842 17.5002" stroke="#052161" stroke-width="2.42052" stroke-linejoin="round"/>
<path d="M26.6342 24.8514C29.0583 28.4553 29.2233 32.737 26.7741 35.1611C23.8766 38.0298 18.4188 37.2158 14.5854 33.343C10.752 29.4702 9.99177 24.0052 12.8892 21.1364C15.2954 18.7553 19.4623 18.9095 23.0016 21.2476" stroke="#052161" stroke-width="1.21026"/>
<path d="M21.8757 30.2185C22.7299 29.3726 22.5061 27.7617 21.376 26.6204C20.2458 25.4792 18.6372 25.2397 17.783 26.0856C16.9288 26.9315 17.1525 28.5424 18.2827 29.6836C19.4128 30.8249 21.0215 31.0643 21.8757 30.2185Z" fill="#052161" stroke="#052161" stroke-width="2.42052" stroke-linejoin="round"/>
<path d="M38.5003 9.479L20.0254 27.9539" stroke="#052161" stroke-width="2.42052" stroke-linejoin="round"/>
<path d="M34.6951 5.67383L30.0657 10.3069L30.2235 14.359" stroke="#1659F3" stroke-width="2.42052" stroke-linejoin="round"/>
<path d="M42.3046 13.2827L37.6715 17.9158L33.6194 17.758" stroke="#1659F3" stroke-width="2.42052" stroke-linejoin="round"/>
</g>
<defs>
<clipPath id="clip0_2295_29480">
<rect width="48" height="48" fill="white"/>
</clipPath>
</defs>
</svg>
