<svg width="48" height="48" viewBox="0 0 48 48" fill="none" xmlns="http://www.w3.org/2000/svg">
<rect width="48" height="48" fill="white"/>
<path d="M32.6466 26.09L24.4983 28.5889L4.90552 22.5798V19.9998L24.4983 13.9907L44.0943 19.9998V22.5798L38.0561 24.4305" stroke="#ADADAD" stroke-width="2.18778" stroke-linejoin="round"/>
<path d="M4.90576 19.9995L20.6448 24.8256" stroke="#ADADAD" stroke-width="1.09389"/>
<path d="M32.6468 36.0339C30.4039 36.6206 27.3799 36.9803 24.0512 36.9803C17.1411 36.9803 11.5371 35.4311 11.5371 33.5188V26.7739" stroke="#ADADAD" stroke-width="2.18778" stroke-linejoin="round"/>
<path d="M24.051 19.3804L35.6933 22.5924L35.6187 29.8072" stroke="#ADADAD" stroke-width="2.18778" stroke-linejoin="round"/>
<path d="M24.0511 19.9968C25.2862 19.9968 26.2875 19.7211 26.2875 19.381C26.2875 19.0408 25.2862 18.7651 24.0511 18.7651C22.816 18.7651 21.8147 19.0408 21.8147 19.381C21.8147 19.7211 22.816 19.9968 24.0511 19.9968Z" fill="#ADADAD" stroke="#ADADAD" stroke-width="2.18778" stroke-linejoin="round"/>
<path d="M35.6932 28.6504C36.7855 28.6504 37.6703 29.5352 37.6703 30.6275V34.4196H33.7129V30.6275C33.7129 29.5352 34.5977 28.6504 35.69 28.6504H35.6932Z" fill="#707070"/>
</svg>
