<svg width="48" height="48" viewBox="0 0 48 48" fill="none" xmlns="http://www.w3.org/2000/svg">
<rect width="48" height="48" fill="white"/>
<path d="M35.3491 39.4236L34.9254 31.9759C34.9254 30.675 34.0813 29.5231 32.84 29.1325L28.9672 27.4873C28.9672 27.4873 26.5707 25.9647 26.5707 25.0908V22.8631C27.1003 22.4295 27.951 21.9032 28.7289 21.453C29.8543 20.8042 30.129 20.6817 30.4501 19.3743L30.7182 18.1164C31.1949 15.8722 31.3769 13.5749 31.2578 11.2843L31.1982 10.1556C31.1982 9.54321 30.8341 8.98711 30.2581 8.7223C29.9801 8.59651 29.6755 8.47073 29.3545 8.35157C25.8656 7.04738 22.0523 7.06724 18.6164 8.35157C18.2954 8.47073 17.9908 8.59651 17.7128 8.7223C17.1368 8.98711 16.7727 9.54321 16.7727 10.1556L16.7131 11.2843C16.594 13.5749 16.776 15.8722 17.2527 18.1164L17.5208 19.3743C17.8419 20.6817 18.1166 20.8042 19.2421 21.453C20.0199 21.9032 20.8706 22.4295 21.4003 22.8631V25.0908C21.4003 25.9647 19.0037 27.4873 19.0037 27.4873L15.1309 29.1325C13.8896 29.5231 13.0455 30.675 13.0455 31.9759L12.6218 39.4236" stroke="#ADADAD" stroke-width="1.65506" stroke-linecap="round"/>
<path d="M34.8655 15.1538H37.9935C39.5063 15.1538 40.7343 16.3819 40.7343 17.8946V32.5187C40.7343 33.8361 39.8042 34.9384 38.5629 35.1999" stroke="#ADADAD" stroke-width="1.98607" stroke-linecap="round" stroke-linejoin="round"/>
<path d="M22.0455 28.2617H25.9349C26.2924 28.2617 26.5175 28.649 26.3387 28.9602L24.7035 31.7936L26.1401 37.0865C26.2824 37.6095 26.1732 38.1656 25.8422 38.5959L24.4851 40.3668C24.2335 40.6945 23.7436 40.6945 23.492 40.3668L22.1349 38.5959C21.8072 38.1656 21.6979 37.6095 21.837 37.0865L23.2735 31.7936L21.6384 28.9602C21.4596 28.649 21.6847 28.2617 22.0422 28.2617H22.0455Z" fill="#707070"/>
<path d="M13.1347 15.1538H10.0066C8.49392 15.1538 7.26587 16.3819 7.26587 17.8946V32.5187C7.26587 33.8361 8.19601 34.9384 9.43731 35.1999" stroke="#ADADAD" stroke-width="1.98607" stroke-linecap="round" stroke-linejoin="round"/>
</svg>
