<svg width="25" height="20" viewBox="0 0 25 20" fill="none" xmlns="http://www.w3.org/2000/svg">
<path d="M23.322 0C23.8187 0 24.1667 0.389511 24.1667 0.825067C24.1667 1.13369 23.9915 1.46596 23.5661 1.69867C21.4056 2.8784 18.9044 6.95769 18.9044 9.47396C22.5487 9.35947 24.1316 12.6871 24.1316 14.7728C24.1316 17.2704 22.0315 19.9111 18.9261 19.9111C15.0111 19.9111 13.0899 16.7415 13.0899 13.3068C13.0899 5.86507 21.3476 0 23.322 0ZM10.2322 0C10.7276 0 11.0768 0.389511 11.0768 0.825067C11.0768 1.13369 10.9016 1.46596 10.4763 1.69867C8.31575 2.8784 5.8145 6.95769 5.8145 9.47396C9.45883 9.35947 11.0417 12.6871 11.0417 14.7728C11.0417 17.2704 8.94046 19.9111 5.83625 19.9111C1.92004 19.9111 0 16.7415 0 13.3068C0 5.86507 8.25654 0 10.2322 0Z" fill="#1659F3"/>
</svg>
