<svg width="25" height="20" viewBox="0 0 25 20" fill="none" xmlns="http://www.w3.org/2000/svg">
<path d="M0.844642 19.6848C0.348016 19.6848 1.71998e-05 19.2997 1.72374e-05 18.8691C1.72641e-05 18.564 0.175225 18.2355 0.600559 18.0054C2.76106 16.8391 5.26231 12.8062 5.26231 10.3185C1.61798 10.4317 0.0350591 7.14187 0.0350593 5.07988C0.0350595 2.61067 2.13514 -3.62583e-05 5.24056 -3.59869e-05C9.15556 -3.56446e-05 11.0768 3.13355 11.0768 6.52918C11.0768 13.8864 2.81906 19.6848 0.844642 19.6848ZM13.9345 19.6848C13.4391 19.6848 13.0899 19.2997 13.0899 18.8691C13.0899 18.564 13.2651 18.2355 13.6904 18.0055C15.8509 16.8391 18.3522 12.8062 18.3522 10.3185C14.7079 10.4317 13.1249 7.14187 13.1249 5.07989C13.1249 2.61067 15.2262 -3.51139e-05 18.3304 -3.48425e-05C22.2466 -3.45001e-05 24.1667 3.13355 24.1667 6.52918C24.1667 13.8864 15.9101 19.6848 13.9345 19.6848Z" fill="#1659F3"/>
</svg>
