<svg width="48" height="48" viewBox="0 0 48 48" fill="none" xmlns="http://www.w3.org/2000/svg">
<path d="M13.479 27.3251C13.2771 26.1765 13.1711 24.9782 13.1711 23.7435C13.1711 15.4385 18.0205 8.70898 24.0018 8.70898C29.9832 8.70898 34.8325 15.4418 34.8325 23.7435C34.8325 24.9782 34.7266 26.1765 34.5247 27.3251" stroke="#112255" stroke-width="0.993035" stroke-linecap="round"/>
<path d="M17.3749 23.7437H8.96387" stroke="#112255" stroke-width="0.993035" stroke-linecap="round"/>
<path d="M39.0364 23.7437H30.6221" stroke="#112255" stroke-width="0.993035" stroke-linecap="round"/>
<path d="M27.9738 13.8364C28.2055 13.9225 28.424 14.0119 28.6226 14.1045C29.0364 14.2965 29.2979 14.6937 29.2979 15.134L29.3409 15.945C29.427 17.5934 29.2979 19.2452 28.9536 20.8572L28.7616 21.7608C28.5332 22.7009 28.3346 22.7903 27.5236 23.257C26.9642 23.5814 26.3519 23.9588 25.9712 24.2699V25.872C25.9712 26.5009 27.6925 27.5933 27.6925 27.5933L30.4763 28.775" stroke="#112255" stroke-width="1.65506" stroke-linecap="round"/>
<path d="M16.5938 29.6391C16.8586 29.2386 17.2558 28.9274 17.7391 28.7752L20.5229 27.5935C20.5229 27.5935 22.2441 26.4978 22.2441 25.8722V24.2701C21.8635 23.959 21.2511 23.5816 20.6917 23.2572C19.8807 22.7905 19.6854 22.7011 19.4537 21.761L19.2617 20.8574C18.9175 19.2453 18.7884 17.5936 18.8744 15.9452L18.9175 15.1342C18.9175 14.6939 19.179 14.2934 19.5927 14.1047C19.7913 14.0121 20.0098 13.9227 20.2415 13.8366C21.4927 13.3699 22.8002 13.1382 24.1011 13.1382C25.4053 13.1382 26.7095 13.3699 27.9607 13.8366C28.1924 13.9227 28.4109 14.0121 28.6095 14.1047C29.0232 14.2967 29.2847 14.6939 29.2847 15.1342L29.3278 15.9452C29.4138 17.5936 29.2847 19.2453 28.9405 20.8574L28.7485 21.761C28.5201 22.7011 28.3215 22.7905 27.5105 23.2572C26.9511 23.5816 26.3387 23.959 25.9581 24.2701V25.8722C25.9581 26.5011 27.6793 27.5935 27.6793 27.5935L30.4631 28.7752C30.9431 28.9274 31.3436 29.2386 31.6084 29.6391" stroke="#112255" stroke-width="1.65506" stroke-linecap="round" stroke-linejoin="round"/>
<path d="M13.3101 40.026L12.6382 33.0449H35.3621L34.6902 40.026" stroke="#2E6AF5" stroke-width="1.98607" stroke-linecap="round" stroke-linejoin="round"/>
<path d="M10.2846 29.9169C9.4339 28.0334 8.96387 25.9448 8.96387 23.7435C8.96387 15.4385 15.6966 8.70898 23.9984 8.70898C32.3002 8.70898 39.033 15.4418 39.033 23.7435C39.033 25.9448 38.5596 28.0334 37.7122 29.9169" stroke="#112255" stroke-width="1.98607" stroke-linecap="round" stroke-linejoin="round"/>
</svg>
