<svg width="48" height="48" viewBox="0 0 48 48" fill="none" xmlns="http://www.w3.org/2000/svg">
<g clip-path="url(#clip0_3346_21769)">
<path d="M26.001 21.9992C24.6868 21.9992 23.621 20.9333 23.621 19.6192C23.621 19.1326 23.7666 18.6791 24.0182 18.3018C24.0116 18.3018 24.005 18.3018 23.995 18.3018C22.0454 18.3018 20.4631 19.884 20.4631 21.8337C20.4631 23.7833 22.0454 25.3655 23.995 25.3655C25.9447 25.3655 27.5269 23.7833 27.5269 21.8337C27.5269 21.7079 27.5203 21.5854 27.5071 21.4629C27.0966 21.8005 26.5703 22.0025 25.9977 22.0025L26.001 21.9992Z" fill="#2E6AF5"/>
<path d="M12.6379 29.8177C10.9001 28.775 9.26491 27.4741 7.78198 25.915" stroke="#112255" stroke-width="1.98607" stroke-linecap="round"/>
<path d="M35.3618 29.8177C37.0996 28.775 38.7348 27.4741 40.2178 25.915" stroke="#112255" stroke-width="1.98607" stroke-linecap="round"/>
<path d="M40.2146 25.915C35.7327 19.2716 29.8672 15.9482 23.9984 15.9482C18.1295 15.9482 12.264 19.2716 7.7821 25.915" stroke="#112255" stroke-width="1.98607" stroke-linecap="round"/>
<path d="M28.606 28.0601L32.6046 33.3" stroke="#112255" stroke-width="1.98607" stroke-linecap="round"/>
<path d="M29.9499 17.2789C32.5318 20.6684 31.6347 25.8123 28.0565 28.1294C24.4782 30.4465 19.1953 29.0529 17.2655 25.1271C16.0044 22.5684 16.3618 19.3808 18.1394 17.1531" stroke="#112255" stroke-width="1.98607" stroke-linecap="round"/>
</g>
<defs>
<clipPath id="clip0_3346_21769">
<rect width="48" height="48" fill="white"/>
</clipPath>
</defs>
</svg>
