<svg width="48" height="48" viewBox="0 0 48 48" fill="none" xmlns="http://www.w3.org/2000/svg">
<g clip-path="url(#clip0_3346_21791)">
<path d="M14.3064 6.93799H9.60932C8.67514 6.93799 7.91785 7.69529 7.91785 8.62946V13.3265C7.91785 14.2607 8.67514 15.018 9.60932 15.018H14.3064C15.2405 15.018 15.9978 14.2607 15.9978 13.3265V8.62946C15.9978 7.69529 15.2405 6.93799 14.3064 6.93799Z" stroke="#112255" stroke-width="1.98607" stroke-linecap="round" stroke-linejoin="round"/>
<path d="M14.3063 19.9602H9.60919C8.67502 19.9602 7.91772 20.7175 7.91772 21.6517V26.3487C7.91772 27.2829 8.67502 28.0402 9.60919 28.0402H14.3063C15.2404 28.0402 15.9977 27.2829 15.9977 26.3487V21.6517C15.9977 20.7175 15.2404 19.9602 14.3063 19.9602Z" stroke="#112255" stroke-width="1.98607" stroke-linecap="round" stroke-linejoin="round"/>
<path d="M14.3063 32.9788H9.60919C8.67502 32.9788 7.91772 33.7361 7.91772 34.6702V39.3673C7.91772 40.3015 8.67502 41.0588 9.60919 41.0588H14.3063C15.2404 41.0588 15.9977 40.3015 15.9977 39.3673V34.6702C15.9977 33.7361 15.2404 32.9788 14.3063 32.9788Z" stroke="#112255" stroke-width="1.98607" stroke-linecap="round" stroke-linejoin="round"/>
<path d="M21.2906 10.6653H26.6762C28.9933 10.6653 30.8734 12.5454 30.8734 14.8625V32.9126C30.8734 35.2297 28.9933 37.1098 26.6762 37.1098H21.2906" stroke="#2E6AF5" stroke-width="1.98607" stroke-linecap="round"/>
<path d="M20.7412 23.886H38.8144" stroke="#2E6AF5" stroke-width="1.98607" stroke-linecap="round"/>
<path d="M41.1944 23.525L37.2521 21.2476C36.9707 21.0854 36.6232 21.2874 36.6232 21.6117V26.1632C36.6232 26.4876 36.974 26.6895 37.2521 26.5273L41.1944 24.2499C41.4758 24.0877 41.4758 23.6839 41.1944 23.5217V23.525Z" fill="#2E6AF5"/>
</g>
<defs>
<clipPath id="clip0_3346_21791">
<rect width="48" height="48" fill="white"/>
</clipPath>
</defs>
</svg>
