<svg width="80" height="80" viewBox="0 0 80 80" fill="none" xmlns="http://www.w3.org/2000/svg">
<g clip-path="url(#clip0_269_15332)">
<path d="M50.3414 25.1904H25.0962C22.156 25.1904 19.7725 27.574 19.7725 30.5142V55.7594C19.7725 58.6996 22.156 61.0831 25.0962 61.0831H50.3414C53.2816 61.0831 55.6652 58.6996 55.6652 55.7594V30.5142C55.6652 27.574 53.2816 25.1904 50.3414 25.1904Z" stroke="#112255" stroke-width="3.31012" stroke-linecap="round" stroke-linejoin="round"/>
<path d="M24.6217 53.0059H14.9285C13.1461 53.0059 11.7012 54.4508 11.7012 56.2332V65.9263C11.7012 67.7088 13.1461 69.1537 14.9285 69.1537H24.6217C26.4041 69.1537 27.849 67.7088 27.849 65.9263V56.2332C27.849 54.4508 26.4041 53.0059 24.6217 53.0059Z" fill="#112255"/>
<path d="M54.2747 8.63965H49.4529C47.6705 8.63965 46.2256 10.0846 46.2256 11.867V16.6887C46.2256 18.4712 47.6705 19.9161 49.4529 19.9161H54.2747C56.0571 19.9161 57.5021 18.4712 57.5021 16.6887V11.867C57.5021 10.0846 56.0571 8.63965 54.2747 8.63965Z" fill="#112255"/>
<path d="M66.925 56.0518H62.6715C61.9129 56.0518 61.2979 56.6668 61.2979 57.4255V61.679C61.2979 62.4376 61.9129 63.0527 62.6715 63.0527H66.925C67.6837 63.0527 68.2987 62.4376 68.2987 61.679V57.4255C68.2987 56.6668 67.6837 56.0518 66.925 56.0518Z" fill="#112255"/>
<path d="M27.7939 45.4533L34.6845 51.4226L47.4891 34.8389" stroke="#2E6AF5" stroke-width="3.31012" stroke-linecap="round" stroke-linejoin="round"/>
</g>
<defs>
<clipPath id="clip0_269_15332">
<rect width="80" height="80" fill="white"/>
</clipPath>
</defs>
</svg>
