<svg width="80" height="80" viewBox="0 0 80 80" fill="none" xmlns="http://www.w3.org/2000/svg">
<g clip-path="url(#clip0_269_15342)">
<path d="M5.10352 58.087C32.8533 58.087 22.2499 22.8066 40.0032 22.8066" stroke="#112255" stroke-width="3.31012" stroke-linecap="round" stroke-linejoin="round"/>
<path d="M28.6219 36.8912C30.4652 36.8912 31.9596 35.3969 31.9596 33.5535C31.9596 31.7102 30.4652 30.2158 28.6219 30.2158C26.7785 30.2158 25.2842 31.7102 25.2842 33.5535C25.2842 35.3969 26.7785 36.8912 28.6219 36.8912Z" fill="#112255"/>
<path d="M22.5863 36.1017C22.2553 35.3183 22.0732 34.4577 22.0732 33.5529C22.0732 31.1531 23.3642 29.0512 25.2896 27.9092" stroke="#2E6AF5" stroke-width="1.65506" stroke-miterlimit="10" stroke-linecap="round"/>
<path d="M34.2653 30.2158C34.8446 31.1923 35.1756 32.3343 35.1756 33.5535C35.1756 36.3395 33.4378 38.7173 30.9883 39.6662" stroke="#2E6AF5" stroke-width="1.65506" stroke-miterlimit="10" stroke-linecap="round"/>
<path d="M19.1551 40.328C17.7869 38.4192 16.9814 36.08 16.9814 33.5533C16.9814 27.1207 22.1949 21.9072 28.6275 21.9072" stroke="#2E6AF5" stroke-width="3.31012" stroke-linecap="round" stroke-linejoin="round"/>
<path d="M38.8115 27.9092C39.7383 29.5808 40.2679 31.5062 40.2679 33.5529C40.2679 39.5829 35.6889 44.5425 29.8135 45.1383" stroke="#2E6AF5" stroke-width="3.31012" stroke-linecap="round" stroke-linejoin="round"/>
<path d="M74.8977 58.087C47.1479 58.087 57.7513 22.8066 39.998 22.8066" stroke="#112255" stroke-width="3.31012" stroke-linecap="round" stroke-linejoin="round"/>
</g>
<defs>
<clipPath id="clip0_269_15342">
<rect width="80" height="80" fill="white"/>
</clipPath>
</defs>
</svg>
