<svg width="80" height="80" viewBox="0 0 80 80" fill="none" xmlns="http://www.w3.org/2000/svg">
<g clip-path="url(#clip0_269_15347)">
<path d="M62.4566 49.1663C62.4566 56.7023 56.3494 62.815 48.8079 62.815C41.2663 62.815 35.1592 56.7078 35.1592 49.1663C35.1592 41.6247 41.2663 35.5176 48.8079 35.5176" stroke="#112255" stroke-width="3.31012" stroke-linecap="round" stroke-linejoin="round"/>
<path d="M42.6836 48.1723L48.8956 53.5513L60.4369 38.6006" stroke="#2E6AF5" stroke-width="3.31012" stroke-linecap="round" stroke-linejoin="round"/>
<path d="M50.4628 30.0056C51.8887 30.0056 53.0446 28.8496 53.0446 27.4237C53.0446 25.9977 51.8887 24.8418 50.4628 24.8418C49.0368 24.8418 47.8809 25.9977 47.8809 27.4237C47.8809 28.8496 49.0368 30.0056 50.4628 30.0056Z" fill="#112255"/>
<path d="M39.1034 30.0056C40.5293 30.0056 41.6853 28.8496 41.6853 27.4237C41.6853 25.9977 40.5293 24.8418 39.1034 24.8418C37.6774 24.8418 36.5215 25.9977 36.5215 27.4237C36.5215 28.8496 37.6774 30.0056 39.1034 30.0056Z" fill="#2E6AF5"/>
<path d="M27.7499 30.0056C29.1758 30.0056 30.3318 28.8496 30.3318 27.4237C30.3318 25.9977 29.1758 24.8418 27.7499 24.8418C26.3239 24.8418 25.168 25.9977 25.168 27.4237C25.168 28.8496 26.3239 30.0056 27.7499 30.0056Z" fill="#112255"/>
<path d="M16.3905 30.0056C17.8164 30.0056 18.9724 28.8496 18.9724 27.4237C18.9724 25.9977 17.8164 24.8418 16.3905 24.8418C14.9645 24.8418 13.8086 25.9977 13.8086 27.4237C13.8086 28.8496 14.9645 30.0056 16.3905 30.0056Z" fill="#112255"/>
<path d="M27.7499 30.0056C29.1758 30.0056 30.3318 28.8496 30.3318 27.4237C30.3318 25.9977 29.1758 24.8418 27.7499 24.8418C26.3239 24.8418 25.168 25.9977 25.168 27.4237C25.168 28.8496 26.3239 30.0056 27.7499 30.0056Z" fill="#112255"/>
<path d="M27.7499 41.3923C29.1758 41.3923 30.3318 40.2363 30.3318 38.8104C30.3318 37.3845 29.1758 36.2285 27.7499 36.2285C26.3239 36.2285 25.168 37.3845 25.168 38.8104C25.168 40.2363 26.3239 41.3923 27.7499 41.3923Z" fill="#112255"/>
<path d="M16.3905 41.3923C17.8164 41.3923 18.9724 40.2363 18.9724 38.8104C18.9724 37.3845 17.8164 36.2285 16.3905 36.2285C14.9645 36.2285 13.8086 37.3845 13.8086 38.8104C13.8086 40.2363 14.9645 41.3923 16.3905 41.3923Z" fill="#112255"/>
<path d="M39.1034 18.6462C40.5293 18.6462 41.6853 17.4903 41.6853 16.0643C41.6853 14.6384 40.5293 13.4824 39.1034 13.4824C37.6774 13.4824 36.5215 14.6384 36.5215 16.0643C36.5215 17.4903 37.6774 18.6462 39.1034 18.6462Z" fill="#112255"/>
<path d="M27.7499 30.0056C29.1758 30.0056 30.3318 28.8496 30.3318 27.4237C30.3318 25.9977 29.1758 24.8418 27.7499 24.8418C26.3239 24.8418 25.168 25.9977 25.168 27.4237C25.168 28.8496 26.3239 30.0056 27.7499 30.0056Z" fill="#112255"/>
<path d="M16.3905 30.0056C17.8164 30.0056 18.9724 28.8496 18.9724 27.4237C18.9724 25.9977 17.8164 24.8418 16.3905 24.8418C14.9645 24.8418 13.8086 25.9977 13.8086 27.4237C13.8086 28.8496 14.9645 30.0056 16.3905 30.0056Z" fill="#112255"/>
<path d="M27.7499 18.6189C29.1758 18.6189 30.3318 17.4629 30.3318 16.037C30.3318 14.611 29.1758 13.4551 27.7499 13.4551C26.3239 13.4551 25.168 14.611 25.168 16.037C25.168 17.4629 26.3239 18.6189 27.7499 18.6189Z" fill="#112255"/>
<path d="M16.3905 18.6189C17.8164 18.6189 18.9724 17.4629 18.9724 16.037C18.9724 14.611 17.8164 13.4551 16.3905 13.4551C14.9645 13.4551 13.8086 14.611 13.8086 16.037C13.8086 17.4629 14.9645 18.6189 16.3905 18.6189Z" fill="#2E6AF5"/>
<path d="M27.7499 53.2761C29.1758 53.2761 30.3318 52.1201 30.3318 50.6942C30.3318 49.2683 29.1758 48.1123 27.7499 48.1123C26.3239 48.1123 25.168 49.2683 25.168 50.6942C25.168 52.1201 26.3239 53.2761 27.7499 53.2761Z" fill="#2E6AF5"/>
<path d="M66.1856 66.5384L59.1074 59.4658" stroke="#112255" stroke-width="3.31012" stroke-linecap="round" stroke-linejoin="round"/>
</g>
<defs>
<clipPath id="clip0_269_15347">
<rect width="80" height="80" fill="white"/>
</clipPath>
</defs>
</svg>
