<svg width="80" height="80" viewBox="0 0 80 80" fill="none" xmlns="http://www.w3.org/2000/svg">
<g clip-path="url(#clip0_269_15337)">
<path d="M16.6613 31.2152C18.0842 31.2152 19.2377 30.0618 19.2377 28.6389C19.2377 27.216 18.0842 26.0625 16.6613 26.0625C15.2384 26.0625 14.085 27.216 14.085 28.6389C14.085 30.0618 15.2384 31.2152 16.6613 31.2152Z" fill="#112255"/>
<path d="M16.6613 42.5902C18.0842 42.5902 19.2377 41.4368 19.2377 40.0139C19.2377 38.591 18.0842 37.4375 16.6613 37.4375C15.2384 37.4375 14.085 38.591 14.085 40.0139C14.085 41.4368 15.2384 42.5902 16.6613 42.5902Z" fill="#112255"/>
<path d="M39.3518 19.8725C40.7747 19.8725 41.9281 18.719 41.9281 17.2961C41.9281 15.8732 40.7747 14.7197 39.3518 14.7197C37.9289 14.7197 36.7754 15.8732 36.7754 17.2961C36.7754 18.719 37.9289 19.8725 39.3518 19.8725Z" fill="#112255"/>
<path d="M16.6613 31.2152C18.0842 31.2152 19.2377 30.0618 19.2377 28.6389C19.2377 27.216 18.0842 26.0625 16.6613 26.0625C15.2384 26.0625 14.085 27.216 14.085 28.6389C14.085 30.0618 15.2384 31.2152 16.6613 31.2152Z" fill="#112255"/>
<path d="M28.0041 19.8393C29.427 19.8393 30.5805 18.6858 30.5805 17.2629C30.5805 15.84 29.427 14.6865 28.0041 14.6865C26.5812 14.6865 25.4277 15.84 25.4277 17.2629C25.4277 18.6858 26.5812 19.8393 28.0041 19.8393Z" fill="#112255"/>
<path d="M50.6945 19.8393C52.1174 19.8393 53.2709 18.6858 53.2709 17.2629C53.2709 15.84 52.1174 14.6865 50.6945 14.6865C49.2716 14.6865 48.1182 15.84 48.1182 17.2629C48.1182 18.6858 49.2716 19.8393 50.6945 19.8393Z" fill="#112255"/>
<path d="M62.0432 19.8393C63.4661 19.8393 64.6195 18.6858 64.6195 17.2629C64.6195 15.84 63.4661 14.6865 62.0432 14.6865C60.6203 14.6865 59.4668 15.84 59.4668 17.2629C59.4668 18.6858 60.6203 19.8393 62.0432 19.8393Z" fill="#112255"/>
<path d="M16.6613 19.8393C18.0842 19.8393 19.2377 18.6858 19.2377 17.2629C19.2377 15.84 18.0842 14.6865 16.6613 14.6865C15.2384 14.6865 14.085 15.84 14.085 17.2629C14.085 18.6858 15.2384 19.8393 16.6613 19.8393Z" fill="#112255"/>
<path d="M16.6613 31.1986C18.0842 31.1986 19.2377 30.0452 19.2377 28.6223C19.2377 27.1994 18.0842 26.0459 16.6613 26.0459C15.2384 26.0459 14.085 27.1994 14.085 28.6223C14.085 30.0452 15.2384 31.1986 16.6613 31.1986Z" fill="#112255"/>
<path d="M62.0432 42.5629C63.4661 42.5629 64.6195 41.4094 64.6195 39.9865C64.6195 38.5636 63.4661 37.4102 62.0432 37.4102C60.6203 37.4102 59.4668 38.5636 59.4668 39.9865C59.4668 41.4094 60.6203 42.5629 62.0432 42.5629Z" fill="#112255"/>
<path d="M16.6613 42.5629C18.0842 42.5629 19.2377 41.4094 19.2377 39.9865C19.2377 38.5636 18.0842 37.4102 16.6613 37.4102C15.2384 37.4102 14.085 38.5636 14.085 39.9865C14.085 41.4094 15.2384 42.5629 16.6613 42.5629Z" fill="#112255"/>
<path d="M62.0432 53.9223C63.4661 53.9223 64.6195 52.7688 64.6195 51.3459C64.6195 49.923 63.4661 48.7695 62.0432 48.7695C60.6203 48.7695 59.4668 49.923 59.4668 51.3459C59.4668 52.7688 60.6203 53.9223 62.0432 53.9223Z" fill="#112255"/>
<path d="M39.3518 65.3149C40.7747 65.3149 41.9281 64.1614 41.9281 62.7385C41.9281 61.3156 40.7747 60.1621 39.3518 60.1621C37.9289 60.1621 36.7754 61.3156 36.7754 62.7385C36.7754 64.1614 37.9289 65.3149 39.3518 65.3149Z" fill="#112255"/>
<path d="M28.0041 65.2817C29.427 65.2817 30.5805 64.1282 30.5805 62.7053C30.5805 61.2824 29.427 60.1289 28.0041 60.1289C26.5812 60.1289 25.4277 61.2824 25.4277 62.7053C25.4277 64.1282 26.5812 65.2817 28.0041 65.2817Z" fill="#112255"/>
<path d="M50.6945 65.2817C52.1174 65.2817 53.2709 64.1282 53.2709 62.7053C53.2709 61.2824 52.1174 60.1289 50.6945 60.1289C49.2716 60.1289 48.1182 61.2824 48.1182 62.7053C48.1182 64.1282 49.2716 65.2817 50.6945 65.2817Z" fill="#112255"/>
<path d="M62.0432 65.2817C63.4661 65.2817 64.6195 64.1282 64.6195 62.7053C64.6195 61.2824 63.4661 60.1289 62.0432 60.1289C60.6203 60.1289 59.4668 61.2824 59.4668 62.7053C59.4668 64.1282 60.6203 65.2817 62.0432 65.2817Z" fill="#112255"/>
<path d="M16.6613 65.2817C18.0842 65.2817 19.2377 64.1282 19.2377 62.7053C19.2377 61.2824 18.0842 60.1289 16.6613 60.1289C15.2384 60.1289 14.085 61.2824 14.085 62.7053C14.085 64.1282 15.2384 65.2817 16.6613 65.2817Z" fill="#112255"/>
<path d="M28.0045 31.9318C29.8326 31.9318 31.3146 30.4498 31.3146 28.6216C31.3146 26.7935 29.8326 25.3115 28.0045 25.3115C26.1763 25.3115 24.6943 26.7935 24.6943 28.6216C24.6943 30.4498 26.1763 31.9318 28.0045 31.9318Z" fill="#2E6AF5"/>
<path d="M50.6949 43.2804C52.523 43.2804 54.005 41.7984 54.005 39.9703C54.005 38.1421 52.523 36.6602 50.6949 36.6602C48.8668 36.6602 47.3848 38.1421 47.3848 39.9703C47.3848 41.7984 48.8668 43.2804 50.6949 43.2804Z" fill="#2E6AF5"/>
<path d="M28.0045 43.2804C29.8326 43.2804 31.3146 41.7984 31.3146 39.9703C31.3146 38.1421 29.8326 36.6602 28.0045 36.6602C26.1763 36.6602 24.6943 38.1421 24.6943 39.9703C24.6943 41.7984 26.1763 43.2804 28.0045 43.2804Z" fill="#2E6AF5"/>
<path d="M50.6949 54.6398C52.523 54.6398 54.005 53.1578 54.005 51.3296C54.005 49.5015 52.523 48.0195 50.6949 48.0195C48.8668 48.0195 47.3848 49.5015 47.3848 51.3296C47.3848 53.1578 48.8668 54.6398 50.6949 54.6398Z" fill="#2E6AF5"/>
<path d="M62.0431 28.6221H28.0041V40.0144H50.695V51.346H9.99707" stroke="#2E6AF5" stroke-width="3.31012" stroke-linecap="round" stroke-linejoin="round"/>
<path d="M69.6562 28.0319L63.0912 24.2418C62.6222 23.9715 62.043 24.308 62.043 24.8487V32.4289C62.043 32.9695 62.6278 33.306 63.0912 33.0357L69.6562 29.2456C70.1252 28.9753 70.1252 28.3022 69.6562 28.0319Z" fill="#2E6AF5"/>
</g>
<defs>
<clipPath id="clip0_269_15337">
<rect width="80" height="80" fill="white"/>
</clipPath>
</defs>
</svg>
