<svg width="60" height="60" viewBox="0 0 60 60" fill="none" xmlns="http://www.w3.org/2000/svg">
<g clip-path="url(#clip0_2604_28897)">
<path d="M28.7734 48.1915C18.4086 48.1915 10.005 39.788 10.005 29.4231C10.005 19.0583 18.4086 10.6548 28.7734 10.6548C39.1382 10.6548 47.5417 19.0583 47.5417 29.4231" stroke="#052161" stroke-width="2.48259" stroke-linecap="round"/>
<path d="M28.7734 15.4048V17.8915" stroke="#1659F3" stroke-width="2.48259" stroke-linecap="round"/>
<path d="M14.7551 29.4233H17.246" stroke="#1659F3" stroke-width="2.48259" stroke-linecap="round"/>
<path d="M28.7734 43.4374V40.9507" stroke="#1659F3" stroke-width="2.48259" stroke-linecap="round"/>
<path d="M42.792 29.4233H40.3011" stroke="#1659F3" stroke-width="2.48259" stroke-linecap="round"/>
<path d="M43.2139 50.7567C47.7385 50.7567 51.4064 47.0887 51.4064 42.5641C51.4064 38.0395 47.7385 34.3716 43.2139 34.3716C38.6893 34.3716 35.0214 38.0395 35.0214 42.5641C35.0214 47.0887 38.6893 50.7567 43.2139 50.7567Z" fill="#052161"/>
<path d="M28.7818 33.4535C30.9824 33.4535 32.7663 31.6695 32.7663 29.4689C32.7663 27.2683 30.9824 25.4844 28.7818 25.4844C26.5812 25.4844 24.7972 27.2683 24.7972 29.4689C24.7972 31.6695 26.5812 33.4535 28.7818 33.4535Z" fill="#052161"/>
<path d="M28.7817 29.4687L37.7397 20.8169" stroke="#052161" stroke-width="2.48259" stroke-linecap="round"/>
<path d="M28.7817 29.4689L20.4982 25.4844" stroke="#052161" stroke-width="2.48259" stroke-linecap="round"/>
<path d="M47.4799 42.5645H38.9481" stroke="white" stroke-width="2.48259" stroke-linecap="round"/>
<path d="M43.2139 46.8302V38.2983" stroke="white" stroke-width="2.48259" stroke-linecap="round"/>
</g>
<defs>
<clipPath id="clip0_2604_28897">
<rect width="60" height="60" fill="white"/>
</clipPath>
</defs>
</svg>
