<svg width="648" height="412" viewBox="0 0 648 412" fill="none" xmlns="http://www.w3.org/2000/svg">
<path d="M0 16C0 7.16344 7.16344 0 16 0H632C640.837 0 648 7.16344 648 16V395.9C648 404.736 640.837 411.9 632 411.9H16C7.16343 411.9 0 404.736 0 395.9V16Z" fill="#F3F6FE"/>
<path d="M16 28C16 21.3726 21.3726 16 28 16H620C626.627 16 632 21.3726 632 28V383.9C632 390.527 626.627 395.9 620 395.9H28C21.3726 395.9 16 390.527 16 383.9V28Z" fill="white"/>
<path d="M41.8239 68.4318V53.9375H45.5568V55.2841H43.4489V67.0852H45.5568V68.4318H41.8239ZM55.2003 59.0398C55.0904 58.6951 54.9427 58.3864 54.7571 58.1136C54.5753 57.8371 54.3575 57.6023 54.1037 57.4091C53.8499 57.2121 53.5601 57.0625 53.2344 56.9602C52.9124 56.858 52.5582 56.8068 52.1719 56.8068C51.5166 56.8068 50.9257 56.9754 50.3991 57.3125C49.8726 57.6496 49.456 58.1439 49.1491 58.7955C48.8461 59.4432 48.6946 60.2367 48.6946 61.1761C48.6946 62.1193 48.848 62.9167 49.1548 63.5682C49.4616 64.2197 49.8821 64.714 50.4162 65.0511C50.9503 65.3883 51.5582 65.5568 52.2401 65.5568C52.8726 65.5568 53.4238 65.428 53.8935 65.1705C54.367 64.9129 54.7325 64.5492 54.9901 64.0795C55.2514 63.6061 55.3821 63.0492 55.3821 62.4091L55.8366 62.4943H52.5071V61.0455H57.081V62.3693C57.081 63.3466 56.8726 64.1951 56.456 64.9148C56.0431 65.6307 55.4711 66.1837 54.7401 66.5739C54.0128 66.964 53.1795 67.1591 52.2401 67.1591C51.187 67.1591 50.2628 66.9167 49.4673 66.4318C48.6757 65.947 48.0582 65.2595 47.6151 64.3693C47.1719 63.4754 46.9503 62.4148 46.9503 61.1875C46.9503 60.2595 47.0791 59.4261 47.3366 58.6875C47.5942 57.9489 47.956 57.322 48.4219 56.8068C48.8916 56.2879 49.4427 55.892 50.0753 55.6193C50.7116 55.3428 51.4067 55.2045 52.1605 55.2045C52.7893 55.2045 53.3745 55.2973 53.9162 55.483C54.4616 55.6686 54.9465 55.9318 55.3707 56.2727C55.7988 56.6136 56.1529 57.0189 56.4332 57.4886C56.7135 57.9545 56.9029 58.4716 57.0014 59.0398H55.2003ZM59.3097 67V55.3636H63.4574C64.3589 55.3636 65.107 55.5189 65.7017 55.8295C66.3002 56.1402 66.7472 56.5701 67.0426 57.1193C67.3381 57.6648 67.4858 58.2955 67.4858 59.0114C67.4858 59.7235 67.3362 60.3504 67.0369 60.892C66.7415 61.4299 66.2945 61.8485 65.696 62.1477C65.1013 62.447 64.3532 62.5966 63.4517 62.5966H60.3097V61.0852H63.2926C63.8608 61.0852 64.3229 61.0038 64.679 60.8409C65.0388 60.678 65.3021 60.4413 65.4688 60.1307C65.6354 59.8201 65.7188 59.447 65.7188 59.0114C65.7188 58.572 65.6335 58.1913 65.4631 57.8693C65.2964 57.5473 65.0331 57.3011 64.6733 57.1307C64.3172 56.9564 63.8494 56.8693 63.2699 56.8693H61.0653V67H59.3097ZM65.054 61.75L67.929 67H65.929L63.1108 61.75H65.054ZM70.6051 67H68.7415L72.929 55.3636H74.9574L79.1449 67H77.2812L73.9915 57.4773H73.9006L70.6051 67ZM70.9176 62.4432H76.9631V63.9205H70.9176V62.4432ZM80.8253 67V55.3636H84.973C85.8783 55.3636 86.6283 55.5284 87.223 55.858C87.8177 56.1875 88.2628 56.6383 88.5582 57.2102C88.8537 57.7784 89.0014 58.4186 89.0014 59.1307C89.0014 59.8466 88.8518 60.4905 88.5526 61.0625C88.2571 61.6307 87.8101 62.0814 87.2116 62.4148C86.617 62.7443 85.8688 62.9091 84.9673 62.9091H82.1151V61.4205H84.8082C85.3802 61.4205 85.8442 61.322 86.2003 61.125C86.5563 60.9242 86.8177 60.6515 86.9844 60.3068C87.151 59.9621 87.2344 59.5701 87.2344 59.1307C87.2344 58.6913 87.151 58.3011 86.9844 57.9602C86.8177 57.6193 86.5545 57.3523 86.1946 57.1591C85.8385 56.9659 85.3688 56.8693 84.7855 56.8693H82.581V67H80.8253ZM91.0597 67V55.3636H92.8153V60.4205H98.6165V55.3636H100.378V67H98.6165V61.9261H92.8153V67H91.0597ZM107.169 67V55.3636H114.385V56.875H108.925V60.4205H113.868V61.9261H108.925V67H107.169ZM116.544 67V55.3636H120.692C121.593 55.3636 122.341 55.5189 122.936 55.8295C123.535 56.1402 123.982 56.5701 124.277 57.1193C124.572 57.6648 124.72 58.2955 124.72 59.0114C124.72 59.7235 124.571 60.3504 124.271 60.892C123.976 61.4299 123.529 61.8485 122.93 62.1477C122.336 62.447 121.588 62.5966 120.686 62.5966H117.544V61.0852H120.527C121.095 61.0852 121.557 61.0038 121.913 60.8409C122.273 60.678 122.536 60.4413 122.703 60.1307C122.87 59.8201 122.953 59.447 122.953 59.0114C122.953 58.572 122.868 58.1913 122.697 57.8693C122.531 57.5473 122.268 57.3011 121.908 57.1307C121.552 56.9564 121.084 56.8693 120.504 56.8693H118.3V67H116.544ZM122.288 61.75L125.163 67H123.163L120.345 61.75H122.288ZM136.964 61.1818C136.964 62.4242 136.737 63.4924 136.283 64.3864C135.828 65.2765 135.205 65.9621 134.413 66.4432C133.625 66.9205 132.73 67.1591 131.726 67.1591C130.718 67.1591 129.819 66.9205 129.027 66.4432C128.239 65.9621 127.618 65.2746 127.163 64.3807C126.709 63.4867 126.482 62.4205 126.482 61.1818C126.482 59.9394 126.709 58.8731 127.163 57.983C127.618 57.089 128.239 56.4034 129.027 55.9261C129.819 55.4451 130.718 55.2045 131.726 55.2045C132.73 55.2045 133.625 55.4451 134.413 55.9261C135.205 56.4034 135.828 57.089 136.283 57.983C136.737 58.8731 136.964 59.9394 136.964 61.1818ZM135.226 61.1818C135.226 60.2348 135.072 59.4375 134.766 58.7898C134.463 58.1383 134.046 57.6458 133.516 57.3125C132.989 56.9754 132.393 56.8068 131.726 56.8068C131.055 56.8068 130.457 56.9754 129.93 57.3125C129.404 57.6458 128.987 58.1383 128.68 58.7898C128.377 59.4375 128.226 60.2348 128.226 61.1818C128.226 62.1288 128.377 62.928 128.68 63.5795C128.987 64.2273 129.404 64.7197 129.93 65.0568C130.457 65.3902 131.055 65.5568 131.726 65.5568C132.393 65.5568 132.989 65.3902 133.516 65.0568C134.046 64.7197 134.463 64.2273 134.766 63.5795C135.072 62.928 135.226 62.1288 135.226 61.1818ZM139.153 55.3636H141.284L144.989 64.4091H145.125L148.83 55.3636H150.96V67H149.29V58.5795H149.182L145.75 66.983H144.364L140.932 58.5739H140.824V67H139.153V55.3636ZM157.747 67V55.3636H161.895C162.796 55.3636 163.545 55.5189 164.139 55.8295C164.738 56.1402 165.185 56.5701 165.48 57.1193C165.776 57.6648 165.923 58.2955 165.923 59.0114C165.923 59.7235 165.774 60.3504 165.474 60.892C165.179 61.4299 164.732 61.8485 164.134 62.1477C163.539 62.447 162.791 62.5966 161.889 62.5966H158.747V61.0852H161.73C162.298 61.0852 162.76 61.0038 163.116 60.8409C163.476 60.678 163.74 60.4413 163.906 60.1307C164.073 59.8201 164.156 59.447 164.156 59.0114C164.156 58.572 164.071 58.1913 163.901 57.8693C163.734 57.5473 163.471 57.3011 163.111 57.1307C162.755 56.9564 162.287 56.8693 161.707 56.8693H159.503V67H157.747ZM163.491 61.75L166.366 67H164.366L161.548 61.75H163.491ZM168.06 67V55.3636H175.355V56.875H169.815V60.4205H174.974V61.9261H169.815V65.4886H175.423V67H168.06ZM177.7 67V55.3636H181.848C182.753 55.3636 183.503 55.5284 184.098 55.858C184.693 56.1875 185.138 56.6383 185.433 57.2102C185.729 57.7784 185.876 58.4186 185.876 59.1307C185.876 59.8466 185.727 60.4905 185.428 61.0625C185.132 61.6307 184.685 62.0814 184.087 62.4148C183.492 62.7443 182.744 62.9091 181.842 62.9091H178.99V61.4205H181.683C182.255 61.4205 182.719 61.322 183.075 61.125C183.431 60.9242 183.693 60.6515 183.859 60.3068C184.026 59.9621 184.109 59.5701 184.109 59.1307C184.109 58.6913 184.026 58.3011 183.859 57.9602C183.693 57.6193 183.429 57.3523 183.07 57.1591C182.714 56.9659 182.244 56.8693 181.661 56.8693H179.456V67H177.7ZM198.043 61.1818C198.043 62.4242 197.815 63.4924 197.361 64.3864C196.906 65.2765 196.283 65.9621 195.491 66.4432C194.704 66.9205 193.808 67.1591 192.804 67.1591C191.796 67.1591 190.897 66.9205 190.105 66.4432C189.317 65.9621 188.696 65.2746 188.241 64.3807C187.787 63.4867 187.56 62.4205 187.56 61.1818C187.56 59.9394 187.787 58.8731 188.241 57.983C188.696 57.089 189.317 56.4034 190.105 55.9261C190.897 55.4451 191.796 55.2045 192.804 55.2045C193.808 55.2045 194.704 55.4451 195.491 55.9261C196.283 56.4034 196.906 57.089 197.361 57.983C197.815 58.8731 198.043 59.9394 198.043 61.1818ZM196.304 61.1818C196.304 60.2348 196.151 59.4375 195.844 58.7898C195.541 58.1383 195.124 57.6458 194.594 57.3125C194.067 56.9754 193.471 56.8068 192.804 56.8068C192.134 56.8068 191.535 56.9754 191.009 57.3125C190.482 57.6458 190.065 58.1383 189.759 58.7898C189.455 59.4375 189.304 60.2348 189.304 61.1818C189.304 62.1288 189.455 62.928 189.759 63.5795C190.065 64.2273 190.482 64.7197 191.009 65.0568C191.535 65.3902 192.134 65.5568 192.804 65.5568C193.471 65.5568 194.067 65.3902 194.594 65.0568C195.124 64.7197 195.541 64.2273 195.844 63.5795C196.151 62.928 196.304 62.1288 196.304 61.1818ZM200.232 67V55.3636H204.379C205.281 55.3636 206.029 55.5189 206.624 55.8295C207.222 56.1402 207.669 56.5701 207.964 57.1193C208.26 57.6648 208.408 58.2955 208.408 59.0114C208.408 59.7235 208.258 60.3504 207.959 60.892C207.663 61.4299 207.216 61.8485 206.618 62.1477C206.023 62.447 205.275 62.5966 204.374 62.5966H201.232V61.0852H204.214C204.783 61.0852 205.245 61.0038 205.601 60.8409C205.961 60.678 206.224 60.4413 206.391 60.1307C206.557 59.8201 206.641 59.447 206.641 59.0114C206.641 58.572 206.555 58.1913 206.385 57.8693C206.218 57.5473 205.955 57.3011 205.595 57.1307C205.239 56.9564 204.771 56.8693 204.192 56.8693H201.987V67H200.232ZM205.976 61.75L208.851 67H206.851L204.033 61.75H205.976ZM209.97 56.875V55.3636H218.976V56.875H215.345V67H213.595V56.875H209.97ZM223.909 53.9375V68.4318H220.176V67.0852H222.284V55.2841H220.176V53.9375H223.909Z" fill="black"/>
<path d="M455.278 67V55.3636H462.574V56.875H457.034V60.4205H462.193V61.9261H457.034V65.4886H462.642V67H455.278ZM466.141 55.3636L468.925 59.9148H469.016L471.8 55.3636H473.834L470.209 61.1818L473.857 67H471.811L469.016 62.5114H468.925L466.129 67H464.084L467.794 61.1818L464.107 55.3636H466.141ZM475.575 67V55.3636H479.723C480.628 55.3636 481.378 55.5284 481.973 55.858C482.568 56.1875 483.013 56.6383 483.308 57.2102C483.604 57.7784 483.751 58.4186 483.751 59.1307C483.751 59.8466 483.602 60.4905 483.303 61.0625C483.007 61.6307 482.56 62.0814 481.962 62.4148C481.367 62.7443 480.619 62.9091 479.717 62.9091H476.865V61.4205H479.558C480.13 61.4205 480.594 61.322 480.95 61.125C481.306 60.9242 481.568 60.6515 481.734 60.3068C481.901 59.9621 481.984 59.5701 481.984 59.1307C481.984 58.6913 481.901 58.3011 481.734 57.9602C481.568 57.6193 481.304 57.3523 480.945 57.1591C480.589 56.9659 480.119 56.8693 479.536 56.8693H477.331V67H475.575ZM485.81 67V55.3636H487.565V65.4886H492.838V67H485.81ZM504.496 61.1818C504.496 62.4242 504.268 63.4924 503.814 64.3864C503.359 65.2765 502.736 65.9621 501.945 66.4432C501.157 66.9205 500.261 67.1591 499.257 67.1591C498.25 67.1591 497.35 66.9205 496.558 66.4432C495.77 65.9621 495.149 65.2746 494.695 64.3807C494.24 63.4867 494.013 62.4205 494.013 61.1818C494.013 59.9394 494.24 58.8731 494.695 57.983C495.149 57.089 495.77 56.4034 496.558 55.9261C497.35 55.4451 498.25 55.2045 499.257 55.2045C500.261 55.2045 501.157 55.4451 501.945 55.9261C502.736 56.4034 503.359 57.089 503.814 57.983C504.268 58.8731 504.496 59.9394 504.496 61.1818ZM502.757 61.1818C502.757 60.2348 502.604 59.4375 502.297 58.7898C501.994 58.1383 501.577 57.6458 501.047 57.3125C500.52 56.9754 499.924 56.8068 499.257 56.8068C498.587 56.8068 497.988 56.9754 497.462 57.3125C496.935 57.6458 496.518 58.1383 496.212 58.7898C495.909 59.4375 495.757 60.2348 495.757 61.1818C495.757 62.1288 495.909 62.928 496.212 63.5795C496.518 64.2273 496.935 64.7197 497.462 65.0568C497.988 65.3902 498.587 65.5568 499.257 65.5568C499.924 65.5568 500.52 65.3902 501.047 65.0568C501.577 64.7197 501.994 64.2273 502.297 63.5795C502.604 62.928 502.757 62.1288 502.757 61.1818ZM506.685 67V55.3636H510.832C511.734 55.3636 512.482 55.5189 513.077 55.8295C513.675 56.1402 514.122 56.5701 514.418 57.1193C514.713 57.6648 514.861 58.2955 514.861 59.0114C514.861 59.7235 514.711 60.3504 514.412 60.892C514.116 61.4299 513.67 61.8485 513.071 62.1477C512.476 62.447 511.728 62.5966 510.827 62.5966H507.685V61.0852H510.668C511.236 61.0852 511.698 61.0038 512.054 60.8409C512.414 60.678 512.677 60.4413 512.844 60.1307C513.01 59.8201 513.094 59.447 513.094 59.0114C513.094 58.572 513.009 58.1913 512.838 57.8693C512.671 57.5473 512.408 57.3011 512.048 57.1307C511.692 56.9564 511.224 56.8693 510.645 56.8693H508.44V67H506.685ZM512.429 61.75L515.304 67H513.304L510.486 61.75H512.429ZM516.997 67V55.3636H524.293V56.875H518.753V60.4205H523.912V61.9261H518.753V65.4886H524.361V67H516.997ZM538.747 59.0398C538.637 58.6951 538.49 58.3864 538.304 58.1136C538.122 57.8371 537.904 57.6023 537.651 57.4091C537.397 57.2121 537.107 57.0625 536.781 56.9602C536.459 56.858 536.105 56.8068 535.719 56.8068C535.063 56.8068 534.473 56.9754 533.946 57.3125C533.42 57.6496 533.003 58.1439 532.696 58.7955C532.393 59.4432 532.241 60.2367 532.241 61.1761C532.241 62.1193 532.395 62.9167 532.702 63.5682C533.009 64.2197 533.429 64.714 533.963 65.0511C534.497 65.3883 535.105 65.5568 535.787 65.5568C536.42 65.5568 536.971 65.428 537.44 65.1705C537.914 64.9129 538.279 64.5492 538.537 64.0795C538.798 63.6061 538.929 63.0492 538.929 62.4091L539.384 62.4943H536.054V61.0455H540.628V62.3693C540.628 63.3466 540.42 64.1951 540.003 64.9148C539.59 65.6307 539.018 66.1837 538.287 66.5739C537.56 66.964 536.726 67.1591 535.787 67.1591C534.734 67.1591 533.81 66.9167 533.014 66.4318C532.223 65.947 531.605 65.2595 531.162 64.3693C530.719 63.4754 530.497 62.4148 530.497 61.1875C530.497 60.2595 530.626 59.4261 530.884 58.6875C531.141 57.9489 531.503 57.322 531.969 56.8068C532.438 56.2879 532.99 55.892 533.622 55.6193C534.259 55.3428 534.954 55.2045 535.707 55.2045C536.336 55.2045 536.921 55.2973 537.463 55.483C538.009 55.6686 538.493 55.9318 538.918 56.2727C539.346 56.6136 539.7 57.0189 539.98 57.4886C540.26 57.9545 540.45 58.4716 540.548 59.0398H538.747ZM542.857 67V55.3636H547.004C547.906 55.3636 548.654 55.5189 549.249 55.8295C549.847 56.1402 550.294 56.5701 550.589 57.1193C550.885 57.6648 551.033 58.2955 551.033 59.0114C551.033 59.7235 550.883 60.3504 550.584 60.892C550.288 61.4299 549.841 61.8485 549.243 62.1477C548.648 62.447 547.9 62.5966 546.999 62.5966H543.857V61.0852H546.839C547.408 61.0852 547.87 61.0038 548.226 60.8409C548.586 60.678 548.849 60.4413 549.016 60.1307C549.182 59.8201 549.266 59.447 549.266 59.0114C549.266 58.572 549.18 58.1913 549.01 57.8693C548.843 57.5473 548.58 57.3011 548.22 57.1307C547.864 56.9564 547.396 56.8693 546.817 56.8693H544.612V67H542.857ZM548.601 61.75L551.476 67H549.476L546.658 61.75H548.601ZM554.152 67H552.288L556.476 55.3636H558.504L562.692 67H560.828L557.538 57.4773H557.447L554.152 67ZM554.464 62.4432H560.51V63.9205H554.464V62.4432ZM564.372 67V55.3636H568.52C569.425 55.3636 570.175 55.5284 570.77 55.858C571.365 56.1875 571.81 56.6383 572.105 57.2102C572.401 57.7784 572.548 58.4186 572.548 59.1307C572.548 59.8466 572.399 60.4905 572.099 61.0625C571.804 61.6307 571.357 62.0814 570.759 62.4148C570.164 62.7443 569.416 62.9091 568.514 62.9091H565.662V61.4205H568.355C568.927 61.4205 569.391 61.322 569.747 61.125C570.103 60.9242 570.365 60.6515 570.531 60.3068C570.698 59.9621 570.781 59.5701 570.781 59.1307C570.781 58.6913 570.698 58.3011 570.531 57.9602C570.365 57.6193 570.101 57.3523 569.741 57.1591C569.385 56.9659 568.916 56.8693 568.332 56.8693H566.128V67H564.372ZM574.607 67V55.3636H576.362V60.4205H582.163V55.3636H583.925V67H582.163V61.9261H576.362V67H574.607Z" fill="#1659F3"/>
<path d="M603.435 61.5833H596.333V60.4166H603.435L600.168 57.1499L601 56.3333L605.666 60.9999L601 65.6666L600.168 64.8499L603.435 61.5833Z" fill="#1659F3"/>
<path d="M47.3284 147V146.169L50.7864 142.362C51.4625 141.619 52.0112 141.004 52.4324 140.516C52.8646 140.028 53.186 139.585 53.3966 139.186C53.6072 138.787 53.7125 138.355 53.7125 137.889C53.7125 137.147 53.4964 136.576 53.0641 136.177C52.6319 135.778 52.0555 135.578 51.3351 135.578C50.5925 135.578 49.9663 135.789 49.4564 136.21C48.9577 136.631 48.6196 137.219 48.4423 137.972L47.2286 137.706C47.3727 137.03 47.6332 136.448 48.01 135.961C48.3869 135.473 48.8579 135.096 49.4232 134.83C49.9884 134.553 50.6202 134.415 51.3185 134.415C52.0611 134.415 52.7094 134.564 53.2636 134.863C53.8178 135.163 54.2501 135.573 54.5604 136.094C54.8818 136.615 55.0425 137.213 55.0425 137.889C55.0425 138.355 54.9428 138.804 54.7433 139.236C54.5549 139.668 54.2667 140.134 53.8788 140.632C53.4908 141.131 52.9921 141.713 52.3825 142.378L49.2403 145.836H55.375V147H47.3284ZM62.4343 147.2C61.459 147.2 60.6 146.933 59.8574 146.401C59.1259 145.858 58.5551 145.11 58.145 144.157C57.7349 143.193 57.5298 142.073 57.5298 140.799C57.5298 139.524 57.7349 138.41 58.145 137.457C58.5551 136.493 59.1259 135.745 59.8574 135.213C60.5889 134.681 61.4423 134.415 62.4177 134.415C63.3931 134.415 64.2465 134.681 64.978 135.213C65.7095 135.745 66.2803 136.493 66.6904 137.457C67.1005 138.41 67.3056 139.524 67.3056 140.799C67.3056 142.073 67.1005 143.193 66.6904 144.157C66.2914 145.121 65.7262 145.869 64.9946 146.401C64.2631 146.933 63.4097 147.2 62.4343 147.2ZM62.4343 145.953C63.1437 145.953 63.7644 145.736 64.2964 145.304C64.8284 144.872 65.244 144.273 65.5433 143.509C65.8425 142.733 65.9922 141.83 65.9922 140.799C65.9922 139.768 65.8425 138.87 65.5433 138.105C65.244 137.33 64.8284 136.731 64.2964 136.31C63.7644 135.878 63.1381 135.662 62.4177 135.662C61.7084 135.662 61.0877 135.878 60.5557 136.31C60.0237 136.731 59.608 137.33 59.3088 138.105C59.0095 138.87 58.8599 139.768 58.8599 140.799C58.8599 141.818 59.0095 142.716 59.3088 143.492C59.608 144.268 60.0237 144.872 60.5557 145.304C61.0988 145.736 61.725 145.953 62.4343 145.953ZM74.6111 147.2C73.6358 147.2 72.7768 146.933 72.0342 146.401C71.3027 145.858 70.7319 145.11 70.3218 144.157C69.9117 143.193 69.7066 142.073 69.7066 140.799C69.7066 139.524 69.9117 138.41 70.3218 137.457C70.7319 136.493 71.3027 135.745 72.0342 135.213C72.7657 134.681 73.6191 134.415 74.5945 134.415C75.5698 134.415 76.4233 134.681 77.1548 135.213C77.8863 135.745 78.4571 136.493 78.8672 137.457C79.2773 138.41 79.4823 139.524 79.4823 140.799C79.4823 142.073 79.2773 143.193 78.8672 144.157C78.4682 145.121 77.9029 145.869 77.1714 146.401C76.4399 146.933 75.5865 147.2 74.6111 147.2ZM74.6111 145.953C75.3205 145.953 75.9411 145.736 76.4732 145.304C77.0052 144.872 77.4208 144.273 77.7201 143.509C78.0193 142.733 78.1689 141.83 78.1689 140.799C78.1689 139.768 78.0193 138.87 77.7201 138.105C77.4208 137.33 77.0052 136.731 76.4732 136.31C75.9411 135.878 75.3149 135.662 74.5945 135.662C73.8851 135.662 73.2645 135.878 72.7324 136.31C72.2004 136.731 71.7848 137.33 71.4855 138.105C71.1863 138.87 71.0367 139.768 71.0367 140.799C71.0367 141.818 71.1863 142.716 71.4855 143.492C71.7848 144.268 72.2004 144.872 72.7324 145.304C73.2755 145.736 73.9018 145.953 74.6111 145.953ZM81.9665 147V134.415H83.2134V143.226L82.6814 143.143L87.6857 138.089H89.2983L85.807 141.663L89.6142 147H88.1179L84.5435 142.062L85.3415 142.129L82.7978 144.756L83.2134 143.725V147H81.9665Z" fill="#14212E" fill-opacity="0.62"/>
<path d="M100.025 140.5H608" stroke="#495B6E" stroke-opacity="0.2" stroke-width="1.91831"/>
<path d="M55.1045 196.716V185.493H52.7769V184.33H56.4345V196.716H55.1045ZM63.2857 196.915C62.6429 196.915 62.0444 196.804 61.4902 196.583C60.9471 196.361 60.4705 196.045 60.0604 195.635C59.6503 195.225 59.34 194.737 59.1294 194.172L60.1435 193.673C60.3985 194.316 60.8141 194.826 61.3904 195.203C61.9779 195.568 62.6096 195.751 63.2857 195.751C63.8288 195.751 64.311 195.624 64.7321 195.369C65.1644 195.114 65.5025 194.77 65.7463 194.338C65.9901 193.895 66.112 193.402 66.112 192.858C66.112 192.293 65.9846 191.794 65.7297 191.362C65.4858 190.93 65.1533 190.592 64.7321 190.348C64.311 190.093 63.8344 189.966 63.3024 189.966C62.7593 189.966 62.255 190.093 61.7895 190.348C61.335 190.592 61.0025 190.891 60.7919 191.246L59.7445 191.046L60.6756 184.33H66.9433V185.493H61.1577L61.6731 185.045L60.9249 190.331L60.4095 190.099C60.7975 189.622 61.2519 189.284 61.7728 189.085C62.2938 188.874 62.8258 188.769 63.3689 188.769C64.1669 188.769 64.8707 188.957 65.4803 189.334C66.0899 189.7 66.5665 190.193 66.9101 190.814C67.2647 191.423 67.4421 192.105 67.4421 192.858C67.4421 193.623 67.2592 194.316 66.8934 194.937C66.5388 195.546 66.0455 196.028 65.4138 196.383C64.7931 196.738 64.0838 196.915 63.2857 196.915ZM74.6111 196.915C73.6358 196.915 72.7768 196.649 72.0342 196.117C71.3027 195.574 70.7319 194.826 70.3218 193.873C69.9117 192.908 69.7066 191.789 69.7066 190.514C69.7066 189.24 69.9117 188.126 70.3218 187.173C70.7319 186.208 71.3027 185.46 72.0342 184.928C72.7657 184.396 73.6191 184.13 74.5945 184.13C75.5698 184.13 76.4233 184.396 77.1548 184.928C77.8863 185.46 78.4571 186.208 78.8672 187.173C79.2773 188.126 79.4823 189.24 79.4823 190.514C79.4823 191.789 79.2773 192.908 78.8672 193.873C78.4682 194.837 77.9029 195.585 77.1714 196.117C76.4399 196.649 75.5865 196.915 74.6111 196.915ZM74.6111 195.668C75.3205 195.668 75.9411 195.452 76.4732 195.02C77.0052 194.588 77.4208 193.989 77.7201 193.224C78.0193 192.448 78.1689 191.545 78.1689 190.514C78.1689 189.484 78.0193 188.586 77.7201 187.821C77.4208 187.045 77.0052 186.447 76.4732 186.025C75.9411 185.593 75.3149 185.377 74.5945 185.377C73.8851 185.377 73.2645 185.593 72.7324 186.025C72.2004 186.447 71.7848 187.045 71.4855 187.821C71.1863 188.586 71.0367 189.484 71.0367 190.514C71.0367 191.534 71.1863 192.432 71.4855 193.208C71.7848 193.983 72.2004 194.588 72.7324 195.02C73.2755 195.452 73.9018 195.668 74.6111 195.668ZM81.9665 196.716V184.13H83.2134V192.942L82.6814 192.858L87.6857 187.804H89.2983L85.807 191.379L89.6142 196.716H88.1179L84.5435 191.778L85.3415 191.844L82.7978 194.471L83.2134 193.44V196.716H81.9665Z" fill="#14212E" fill-opacity="0.62"/>
<path d="M100.025 190.216H608" stroke="#495B6E" stroke-opacity="0.2" stroke-width="1.91831"/>
<path d="M53.1724 246.431V235.209H50.8449V234.045H54.5025V246.431H53.1724ZM62.4343 246.631C61.459 246.631 60.6 246.365 59.8574 245.833C59.1259 245.29 58.5551 244.542 58.145 243.588C57.7349 242.624 57.5298 241.505 57.5298 240.23C57.5298 238.956 57.7349 237.842 58.145 236.888C58.5551 235.924 59.1259 235.176 59.8574 234.644C60.5889 234.112 61.4424 233.846 62.4177 233.846C63.3931 233.846 64.2465 234.112 64.978 234.644C65.7095 235.176 66.2803 235.924 66.6904 236.888C67.1005 237.842 67.3056 238.956 67.3056 240.23C67.3056 241.505 67.1005 242.624 66.6904 243.588C66.2914 244.553 65.7262 245.301 64.9946 245.833C64.2631 246.365 63.4097 246.631 62.4343 246.631ZM62.4343 245.384C63.1437 245.384 63.7644 245.168 64.2964 244.736C64.8284 244.303 65.244 243.705 65.5433 242.94C65.8425 242.164 65.9922 241.261 65.9922 240.23C65.9922 239.199 65.8425 238.302 65.5433 237.537C65.244 236.761 64.8284 236.162 64.2964 235.741C63.7644 235.309 63.1381 235.093 62.4177 235.093C61.7084 235.093 61.0877 235.309 60.5557 235.741C60.0237 236.162 59.608 236.761 59.3088 237.537C59.0095 238.302 58.8599 239.199 58.8599 240.23C58.8599 241.25 59.0095 242.148 59.3088 242.923C59.608 243.699 60.0237 244.303 60.5557 244.736C61.0988 245.168 61.725 245.384 62.4343 245.384ZM74.6111 246.631C73.6358 246.631 72.7768 246.365 72.0342 245.833C71.3027 245.29 70.7319 244.542 70.3218 243.588C69.9117 242.624 69.7066 241.505 69.7066 240.23C69.7066 238.956 69.9117 237.842 70.3218 236.888C70.7319 235.924 71.3027 235.176 72.0342 234.644C72.7657 234.112 73.6191 233.846 74.5945 233.846C75.5698 233.846 76.4233 234.112 77.1548 234.644C77.8863 235.176 78.4571 235.924 78.8672 236.888C79.2773 237.842 79.4823 238.956 79.4823 240.23C79.4823 241.505 79.2773 242.624 78.8672 243.588C78.4682 244.553 77.9029 245.301 77.1714 245.833C76.4399 246.365 75.5865 246.631 74.6111 246.631ZM74.6111 245.384C75.3205 245.384 75.9411 245.168 76.4732 244.736C77.0052 244.303 77.4208 243.705 77.7201 242.94C78.0193 242.164 78.1689 241.261 78.1689 240.23C78.1689 239.199 78.0193 238.302 77.7201 237.537C77.4208 236.761 77.0052 236.162 76.4732 235.741C75.9411 235.309 75.3149 235.093 74.5945 235.093C73.8851 235.093 73.2645 235.309 72.7324 235.741C72.2004 236.162 71.7848 236.761 71.4855 237.537C71.1863 238.302 71.0367 239.199 71.0367 240.23C71.0367 241.25 71.1863 242.148 71.4855 242.923C71.7848 243.699 72.2004 244.303 72.7324 244.736C73.2755 245.168 73.9018 245.384 74.6111 245.384ZM81.9665 246.431V233.846H83.2134V242.657L82.6814 242.574L87.6857 237.52H89.2983L85.807 241.095L89.6142 246.431H88.1179L84.5435 241.494L85.3415 241.56L82.7978 244.187L83.2134 243.156V246.431H81.9665Z" fill="#14212E" fill-opacity="0.62"/>
<path d="M100.025 239.931H608" stroke="#495B6E" stroke-opacity="0.2" stroke-width="1.91831"/>
<path d="M63.2857 296.346C62.6429 296.346 62.0444 296.235 61.4902 296.014C60.9471 295.792 60.4705 295.476 60.0604 295.066C59.6503 294.656 59.34 294.168 59.1294 293.603L60.1435 293.104C60.3985 293.747 60.8141 294.257 61.3904 294.634C61.9779 295 62.6096 295.182 63.2857 295.182C63.8288 295.182 64.311 295.055 64.7321 294.8C65.1644 294.545 65.5024 294.202 65.7463 293.769C65.9901 293.326 66.112 292.833 66.112 292.29C66.112 291.724 65.9846 291.226 65.7297 290.793C65.4858 290.361 65.1533 290.023 64.7321 289.779C64.311 289.524 63.8344 289.397 63.3024 289.397C62.7593 289.397 62.255 289.524 61.7895 289.779C61.335 290.023 61.0025 290.322 60.7919 290.677L59.7445 290.477L60.6756 283.761H66.9433V284.925H61.1577L61.6731 284.476L60.9249 289.763L60.4095 289.53C60.7975 289.053 61.2519 288.715 61.7728 288.516C62.2938 288.305 62.8258 288.2 63.3689 288.2C64.1669 288.2 64.8707 288.388 65.4803 288.765C66.0899 289.131 66.5665 289.624 66.9101 290.245C67.2647 290.854 67.4421 291.536 67.4421 292.29C67.4421 293.054 67.2592 293.747 66.8934 294.368C66.5388 294.977 66.0455 295.46 65.4138 295.814C64.7931 296.169 64.0838 296.346 63.2857 296.346ZM74.6111 296.346C73.6358 296.346 72.7768 296.08 72.0342 295.548C71.3027 295.005 70.7319 294.257 70.3218 293.304C69.9117 292.34 69.7066 291.22 69.7066 289.945C69.7066 288.671 69.9117 287.557 70.3218 286.604C70.7319 285.639 71.3027 284.891 72.0342 284.359C72.7657 283.827 73.6191 283.561 74.5945 283.561C75.5698 283.561 76.4233 283.827 77.1548 284.359C77.8863 284.891 78.4571 285.639 78.8672 286.604C79.2773 287.557 79.4823 288.671 79.4823 289.945C79.4823 291.22 79.2773 292.34 78.8672 293.304C78.4682 294.268 77.9029 295.016 77.1714 295.548C76.4399 296.08 75.5865 296.346 74.6111 296.346ZM74.6111 295.099C75.3205 295.099 75.9411 294.883 76.4732 294.451C77.0052 294.019 77.4208 293.42 77.7201 292.655C78.0193 291.88 78.1689 290.976 78.1689 289.945C78.1689 288.915 78.0193 288.017 77.7201 287.252C77.4208 286.476 77.0052 285.878 76.4732 285.457C75.9411 285.024 75.3149 284.808 74.5945 284.808C73.8851 284.808 73.2645 285.024 72.7324 285.457C72.2004 285.878 71.7848 286.476 71.4855 287.252C71.1863 288.017 71.0367 288.915 71.0367 289.945C71.0367 290.965 71.1863 291.863 71.4855 292.639C71.7848 293.415 72.2004 294.019 72.7324 294.451C73.2755 294.883 73.9018 295.099 74.6111 295.099ZM81.9665 296.147V283.561H83.2134V292.373L82.6814 292.29L87.6857 287.236H89.2983L85.807 290.81L89.6142 296.147H88.1179L84.5435 291.209L85.3415 291.275L82.7978 293.902L83.2134 292.872V296.147H81.9665Z" fill="#14212E" fill-opacity="0.62"/>
<path d="M100.025 289.647H608" stroke="#495B6E" stroke-opacity="0.2" stroke-width="1.91831"/>
<path d="M83.7193 346.062C82.744 346.062 81.885 345.796 81.1424 345.264C80.4109 344.721 79.8401 343.973 79.43 343.02C79.0199 342.055 78.8149 340.936 78.8149 339.661C78.8149 338.387 79.0199 337.273 79.43 336.32C79.8401 335.355 80.4109 334.607 81.1424 334.075C81.8739 333.543 82.7274 333.277 83.7027 333.277C84.6781 333.277 85.5315 333.543 86.263 334.075C86.9945 334.607 87.5653 335.355 87.9754 336.32C88.3855 337.273 88.5906 338.387 88.5906 339.661C88.5906 340.936 88.3855 342.055 87.9754 343.02C87.5764 343.984 87.0112 344.732 86.2797 345.264C85.5481 345.796 84.6947 346.062 83.7193 346.062ZM83.7193 344.815C84.4287 344.815 85.0494 344.599 85.5814 344.167C86.1134 343.735 86.529 343.136 86.8283 342.371C87.1275 341.595 87.2772 340.692 87.2772 339.661C87.2772 338.631 87.1275 337.733 86.8283 336.968C86.529 336.192 86.1134 335.594 85.5814 335.172C85.0494 334.74 84.4232 334.524 83.7027 334.524C82.9934 334.524 82.3727 334.74 81.8407 335.172C81.3087 335.594 80.893 336.192 80.5938 336.968C80.2945 337.733 80.1449 338.631 80.1449 339.661C80.1449 340.681 80.2945 341.579 80.5938 342.355C80.893 343.13 81.3087 343.735 81.8407 344.167C82.3838 344.599 83.01 344.815 83.7193 344.815Z" fill="#14212E" fill-opacity="0.62"/>
<path d="M100.025 339.363H608" stroke="#495B6E" stroke-opacity="0.2" stroke-width="1.91831"/>
<rect x="114.148" y="201.558" width="12.445" height="138.97" fill="url(#paint0_linear_2604_28431)"/>
<rect x="147.336" y="184.965" width="12.445" height="155.563" fill="url(#paint1_linear_2604_28431)"/>
<rect x="180.522" y="129.999" width="12.445" height="210.529" fill="url(#paint2_linear_2604_28431)"/>
<rect x="213.709" y="184.965" width="12.445" height="155.563" fill="url(#paint3_linear_2604_28431)"/>
<rect x="246.896" y="258.597" width="12.445" height="81.9299" fill="url(#paint4_linear_2604_28431)"/>
<rect x="280.083" y="184.965" width="12.445" height="155.563" fill="url(#paint5_linear_2604_28431)"/>
<rect x="313.271" y="207.781" width="12.445" height="132.747" fill="url(#paint6_linear_2604_28431)"/>
<rect x="346.456" y="184.965" width="12.445" height="155.563" fill="url(#paint7_linear_2604_28431)"/>
<rect x="379.644" y="226.448" width="12.445" height="114.08" fill="url(#paint8_linear_2604_28431)"/>
<rect x="412.83" y="184.965" width="12.445" height="155.563" fill="url(#paint9_linear_2604_28431)"/>
<rect x="446.018" y="158" width="12.445" height="182.527" fill="url(#paint10_linear_2604_28431)"/>
<rect x="479.203" y="201.558" width="12.445" height="138.97" fill="url(#paint11_linear_2604_28431)"/>
<rect x="512.391" y="184.965" width="12.445" height="155.563" fill="url(#paint12_linear_2604_28431)"/>
<rect x="545.577" y="163.186" width="12.445" height="177.342" fill="url(#paint13_linear_2604_28431)"/>
<rect x="578.764" y="184.965" width="12.445" height="155.563" fill="url(#paint14_linear_2604_28431)"/>
<path d="M121.502 354.808V366.9H120.038V356.343H119.967L117.015 358.304V356.816L120.038 354.808H121.502Z" fill="#14212E" fill-opacity="0.62"/>
<path d="M150.252 366.9V365.837L154.243 361.468C154.711 360.956 155.097 360.512 155.4 360.134C155.703 359.752 155.927 359.394 156.073 359.059C156.222 358.721 156.297 358.367 156.297 357.997C156.297 357.572 156.195 357.203 155.99 356.893C155.789 356.582 155.514 356.342 155.164 356.172C154.813 356.003 154.42 355.918 153.983 355.918C153.518 355.918 153.113 356.015 152.767 356.208C152.424 356.397 152.159 356.662 151.97 357.005C151.785 357.347 151.692 357.749 151.692 358.209H150.299C150.299 357.501 150.462 356.879 150.789 356.343C151.116 355.808 151.56 355.391 152.123 355.092C152.69 354.793 153.326 354.643 154.03 354.643C154.739 354.643 155.366 354.793 155.913 355.092C156.461 355.391 156.89 355.794 157.201 356.302C157.511 356.81 157.667 357.375 157.667 357.997C157.667 358.441 157.586 358.876 157.425 359.301C157.267 359.722 156.992 360.193 156.598 360.712C156.209 361.228 155.667 361.858 154.975 362.602L152.259 365.506V365.601H157.879V366.9H150.252Z" fill="#14212E" fill-opacity="0.62"/>
<path d="M187.337 367.065C186.558 367.065 185.863 366.931 185.253 366.664C184.647 366.396 184.165 366.024 183.807 365.548C183.452 365.067 183.259 364.511 183.228 363.877H184.716C184.747 364.267 184.881 364.603 185.117 364.886C185.353 365.166 185.662 365.382 186.044 365.536C186.426 365.689 186.849 365.766 187.314 365.766C187.833 365.766 188.294 365.676 188.695 365.495C189.096 365.313 189.411 365.062 189.64 364.739C189.868 364.416 189.982 364.042 189.982 363.617C189.982 363.172 189.872 362.781 189.651 362.442C189.431 362.1 189.108 361.832 188.683 361.639C188.258 361.446 187.739 361.35 187.125 361.35H186.156V360.051H187.125C187.605 360.051 188.026 359.965 188.388 359.791C188.754 359.618 189.039 359.374 189.244 359.059C189.453 358.744 189.557 358.374 189.557 357.949C189.557 357.54 189.466 357.184 189.285 356.881C189.104 356.578 188.849 356.342 188.518 356.172C188.191 356.003 187.805 355.918 187.361 355.918C186.944 355.918 186.55 355.995 186.18 356.149C185.814 356.298 185.515 356.517 185.283 356.804C185.05 357.087 184.924 357.43 184.905 357.831H183.488C183.511 357.198 183.702 356.643 184.06 356.166C184.419 355.686 184.887 355.312 185.466 355.045C186.048 354.777 186.688 354.643 187.384 354.643C188.132 354.643 188.774 354.795 189.309 355.098C189.844 355.397 190.256 355.792 190.543 356.284C190.83 356.776 190.974 357.308 190.974 357.879C190.974 358.559 190.795 359.14 190.437 359.62C190.082 360.1 189.6 360.433 188.99 360.618V360.712C189.754 360.838 190.35 361.163 190.779 361.687C191.208 362.206 191.423 362.85 191.423 363.617C191.423 364.274 191.244 364.865 190.885 365.388C190.531 365.908 190.047 366.317 189.433 366.616C188.819 366.915 188.12 367.065 187.337 367.065Z" fill="#14212E" fill-opacity="0.62"/>
<path d="M215.968 364.42V363.216L221.282 354.808H222.156V356.674H221.565L217.55 363.027V363.121H224.706V364.42H215.968ZM221.66 366.9V364.054V363.493V354.808H223.053V366.9H221.66Z" fill="#14212E" fill-opacity="0.62"/>
<path d="M253.03 367.065C252.337 367.065 251.714 366.927 251.159 366.652C250.604 366.376 250.159 365.998 249.824 365.518C249.49 365.038 249.307 364.491 249.275 363.877H250.692C250.747 364.424 250.995 364.877 251.436 365.235C251.881 365.589 252.412 365.766 253.03 365.766C253.526 365.766 253.967 365.65 254.353 365.418C254.742 365.186 255.047 364.867 255.268 364.461C255.492 364.052 255.604 363.59 255.604 363.074C255.604 362.547 255.488 362.076 255.256 361.663C255.028 361.246 254.713 360.917 254.311 360.677C253.91 360.437 253.451 360.315 252.936 360.311C252.566 360.307 252.186 360.364 251.796 360.482C251.407 360.596 251.086 360.744 250.834 360.925L249.464 360.76L250.196 354.808H256.478V356.107H251.424L250.999 359.673H251.07C251.318 359.476 251.629 359.313 252.003 359.183C252.377 359.053 252.766 358.988 253.172 358.988C253.912 358.988 254.571 359.166 255.15 359.52C255.732 359.87 256.189 360.35 256.519 360.96C256.854 361.57 257.021 362.267 257.021 363.05C257.021 363.822 256.848 364.511 256.502 365.117C256.159 365.719 255.687 366.195 255.085 366.545C254.482 366.892 253.798 367.065 253.03 367.065Z" fill="#14212E" fill-opacity="0.62"/>
<path d="M286.266 367.065C285.77 367.057 285.274 366.963 284.778 366.782C284.283 366.601 283.83 366.295 283.421 365.866C283.011 365.434 282.683 364.849 282.435 364.113C282.187 363.373 282.063 362.444 282.063 361.326C282.063 360.256 282.163 359.307 282.364 358.481C282.565 357.65 282.856 356.952 283.238 356.385C283.619 355.814 284.08 355.381 284.619 355.086C285.162 354.791 285.774 354.643 286.455 354.643C287.132 354.643 287.734 354.779 288.262 355.051C288.793 355.318 289.226 355.692 289.561 356.172C289.895 356.652 290.112 357.205 290.21 357.831H288.77C288.636 357.288 288.376 356.837 287.99 356.479C287.604 356.121 287.093 355.942 286.455 355.942C285.518 355.942 284.78 356.349 284.241 357.164C283.706 357.979 283.436 359.122 283.432 360.594H283.527C283.747 360.26 284.009 359.974 284.312 359.738C284.619 359.498 284.958 359.313 285.328 359.183C285.698 359.053 286.089 358.988 286.502 358.988C287.195 358.988 287.829 359.162 288.403 359.508C288.978 359.85 289.439 360.325 289.785 360.931C290.131 361.533 290.305 362.224 290.305 363.003C290.305 363.751 290.137 364.436 289.803 365.058C289.468 365.676 288.998 366.168 288.392 366.534C287.789 366.896 287.081 367.073 286.266 367.065ZM286.266 365.766C286.762 365.766 287.207 365.642 287.601 365.394C287.998 365.146 288.311 364.814 288.539 364.396C288.771 363.979 288.888 363.515 288.888 363.003C288.888 362.503 288.775 362.049 288.551 361.639C288.331 361.226 288.026 360.897 287.636 360.653C287.25 360.409 286.809 360.287 286.314 360.287C285.94 360.287 285.591 360.362 285.269 360.512C284.946 360.657 284.662 360.858 284.418 361.114C284.178 361.37 283.989 361.663 283.852 361.994C283.714 362.32 283.645 362.665 283.645 363.027C283.645 363.507 283.757 363.956 283.981 364.373C284.21 364.79 284.521 365.127 284.914 365.382C285.312 365.638 285.762 365.766 286.266 365.766Z" fill="#14212E" fill-opacity="0.62"/>
<path d="M315.629 366.9L321.037 356.202V356.107H314.803V354.808H322.549V356.178L317.164 366.9H315.629Z" fill="#14212E" fill-opacity="0.62"/>
<path d="M352.125 367.065C351.314 367.065 350.597 366.921 349.976 366.634C349.358 366.343 348.875 365.943 348.529 365.435C348.183 364.924 348.012 364.341 348.015 363.688C348.012 363.176 348.112 362.704 348.317 362.271C348.521 361.834 348.801 361.47 349.155 361.179C349.513 360.884 349.913 360.697 350.353 360.618V360.547C349.775 360.398 349.314 360.073 348.972 359.573C348.629 359.069 348.46 358.496 348.464 357.855C348.46 357.241 348.616 356.692 348.931 356.208C349.245 355.724 349.678 355.342 350.229 355.062C350.784 354.783 351.416 354.643 352.125 354.643C352.825 354.643 353.451 354.783 354.002 355.062C354.553 355.342 354.986 355.724 355.301 356.208C355.62 356.692 355.781 357.241 355.785 357.855C355.781 358.496 355.606 359.069 355.26 359.573C354.917 360.073 354.463 360.398 353.896 360.547V360.618C354.333 360.697 354.726 360.884 355.077 361.179C355.427 361.47 355.706 361.834 355.915 362.271C356.123 362.704 356.23 363.176 356.234 363.688C356.23 364.341 356.053 364.924 355.702 365.435C355.356 365.943 354.874 366.343 354.256 366.634C353.642 366.921 352.931 367.065 352.125 367.065ZM352.125 365.766C352.672 365.766 353.144 365.678 353.542 365.5C353.939 365.323 354.246 365.073 354.463 364.751C354.679 364.428 354.789 364.05 354.793 363.617C354.789 363.161 354.671 362.757 354.439 362.407C354.207 362.056 353.89 361.781 353.488 361.58C353.091 361.38 352.636 361.279 352.125 361.279C351.609 361.279 351.148 361.38 350.743 361.58C350.342 361.781 350.025 362.056 349.793 362.407C349.564 362.757 349.452 363.161 349.456 363.617C349.452 364.05 349.556 364.428 349.769 364.751C349.985 365.073 350.294 365.323 350.696 365.5C351.097 365.678 351.574 365.766 352.125 365.766ZM352.125 360.028C352.558 360.028 352.941 359.941 353.276 359.768C353.614 359.595 353.88 359.353 354.073 359.042C354.266 358.731 354.364 358.367 354.368 357.949C354.364 357.54 354.268 357.184 354.079 356.881C353.89 356.574 353.628 356.338 353.294 356.172C352.959 356.003 352.569 355.918 352.125 355.918C351.672 355.918 351.276 356.003 350.938 356.172C350.599 356.338 350.338 356.574 350.153 356.881C349.968 357.184 349.877 357.54 349.881 357.949C349.877 358.367 349.97 358.731 350.159 359.042C350.351 359.353 350.617 359.595 350.956 359.768C351.294 359.941 351.684 360.028 352.125 360.028Z" fill="#14212E" fill-opacity="0.62"/>
<path d="M385.101 354.643C385.597 354.647 386.093 354.742 386.589 354.927C387.085 355.112 387.537 355.419 387.947 355.848C388.356 356.273 388.685 356.853 388.933 357.589C389.181 358.325 389.305 359.248 389.305 360.358C389.305 361.433 389.202 362.387 388.998 363.222C388.797 364.052 388.506 364.753 388.124 365.323C387.746 365.894 387.285 366.327 386.742 366.622C386.203 366.917 385.593 367.065 384.912 367.065C384.235 367.065 383.631 366.931 383.1 366.664C382.572 366.392 382.139 366.016 381.801 365.536C381.466 365.052 381.252 364.491 381.157 363.853H382.598C382.728 364.408 382.985 364.867 383.371 365.229C383.761 365.587 384.274 365.766 384.912 365.766C385.845 365.766 386.581 365.359 387.12 364.544C387.663 363.729 387.935 362.578 387.935 361.09H387.84C387.62 361.421 387.358 361.706 387.055 361.946C386.752 362.186 386.416 362.371 386.046 362.501C385.676 362.631 385.282 362.696 384.865 362.696C384.172 362.696 383.536 362.525 382.958 362.182C382.383 361.836 381.923 361.362 381.576 360.76C381.234 360.153 381.063 359.461 381.063 358.681C381.063 357.941 381.228 357.265 381.559 356.65C381.893 356.033 382.362 355.541 382.964 355.175C383.57 354.808 384.282 354.631 385.101 354.643ZM385.101 355.942C384.605 355.942 384.158 356.066 383.761 356.314C383.367 356.558 383.054 356.889 382.822 357.306C382.594 357.719 382.48 358.178 382.48 358.681C382.48 359.185 382.59 359.644 382.81 360.057C383.035 360.466 383.34 360.793 383.725 361.037C384.115 361.277 384.558 361.397 385.054 361.397C385.428 361.397 385.776 361.324 386.099 361.179C386.421 361.029 386.703 360.827 386.943 360.571C387.187 360.311 387.378 360.018 387.516 359.691C387.653 359.36 387.722 359.016 387.722 358.658C387.722 358.186 387.608 357.743 387.38 357.329C387.156 356.916 386.845 356.582 386.447 356.326C386.053 356.07 385.605 355.942 385.101 355.942Z" fill="#14212E" fill-opacity="0.62"/>
<path d="M418.502 354.808V366.9H417.038V356.343H416.967L414.015 358.304V356.816L417.038 354.808H418.502ZM425.924 367.065C425.034 367.065 424.276 366.823 423.651 366.339C423.025 365.851 422.547 365.144 422.216 364.219C421.885 363.29 421.72 362.169 421.72 360.854C421.72 359.547 421.885 358.432 422.216 357.507C422.551 356.578 423.031 355.869 423.657 355.381C424.286 354.889 425.042 354.643 425.924 354.643C426.805 354.643 427.559 354.889 428.185 355.381C428.815 355.869 429.295 356.578 429.625 357.507C429.96 358.432 430.127 359.547 430.127 360.854C430.127 362.169 429.962 363.29 429.631 364.219C429.301 365.144 428.822 365.851 428.197 366.339C427.571 366.823 426.813 367.065 425.924 367.065ZM425.924 365.766C426.805 365.766 427.49 365.341 427.978 364.491C428.466 363.641 428.71 362.428 428.71 360.854C428.71 359.807 428.598 358.916 428.374 358.18C428.153 357.444 427.835 356.883 427.417 356.497C427.004 356.111 426.506 355.918 425.924 355.918C425.05 355.918 424.367 356.349 423.875 357.211C423.383 358.069 423.137 359.284 423.137 360.854C423.137 361.901 423.247 362.791 423.468 363.523C423.688 364.255 424.005 364.812 424.418 365.193C424.835 365.575 425.337 365.766 425.924 365.766Z" fill="#14212E" fill-opacity="0.62"/>
<path d="M451.502 354.808V366.9H450.038V356.343H449.967L447.015 358.304V356.816L450.038 354.808H451.502ZM459.231 354.808V366.9H457.766V356.343H457.696L454.744 358.304V356.816L457.766 354.808H459.231Z" fill="#14212E" fill-opacity="0.62"/>
<path d="M484.502 354.808V366.9H483.038V356.343H482.967L480.015 358.304V356.816L483.038 354.808H484.502ZM487.98 366.9V365.837L491.971 361.468C492.439 360.956 492.825 360.512 493.128 360.134C493.431 359.752 493.655 359.394 493.801 359.059C493.951 358.721 494.025 358.367 494.025 357.997C494.025 357.572 493.923 357.203 493.718 356.893C493.518 356.582 493.242 356.342 492.892 356.172C492.542 356.003 492.148 355.918 491.711 355.918C491.247 355.918 490.841 356.015 490.495 356.208C490.152 356.397 489.887 356.662 489.698 357.005C489.513 357.347 489.42 357.749 489.42 358.209H488.027C488.027 357.501 488.19 356.879 488.517 356.343C488.844 355.808 489.289 355.391 489.851 355.092C490.418 354.793 491.054 354.643 491.758 354.643C492.467 354.643 493.095 354.793 493.642 355.092C494.189 355.391 494.618 355.794 494.929 356.302C495.24 356.81 495.395 357.375 495.395 357.997C495.395 358.441 495.314 358.876 495.153 359.301C494.996 359.722 494.72 360.193 494.327 360.712C493.937 361.228 493.396 361.858 492.703 362.602L489.987 365.506V365.601H495.608V366.9H487.98Z" fill="#14212E" fill-opacity="0.62"/>
<path d="M517.502 354.808V366.9H516.038V356.343H515.967L513.015 358.304V356.816L516.038 354.808H517.502ZM525.065 367.065C524.286 367.065 523.591 366.931 522.981 366.664C522.375 366.396 521.893 366.024 521.535 365.548C521.181 365.067 520.988 364.511 520.956 363.877H522.444C522.475 364.267 522.609 364.603 522.845 364.886C523.082 365.166 523.391 365.382 523.772 365.536C524.154 365.689 524.577 365.766 525.042 365.766C525.561 365.766 526.022 365.676 526.423 365.495C526.825 365.313 527.14 365.062 527.368 364.739C527.596 364.416 527.71 364.042 527.71 363.617C527.71 363.172 527.6 362.781 527.38 362.442C527.159 362.1 526.836 361.832 526.411 361.639C525.986 361.446 525.467 361.35 524.853 361.35H523.885V360.051H524.853C525.333 360.051 525.754 359.965 526.116 359.791C526.482 359.618 526.768 359.374 526.972 359.059C527.181 358.744 527.285 358.374 527.285 357.949C527.285 357.54 527.195 357.184 527.014 356.881C526.833 356.578 526.577 356.342 526.246 356.172C525.919 356.003 525.534 355.918 525.089 355.918C524.672 355.918 524.278 355.995 523.908 356.149C523.542 356.298 523.243 356.517 523.011 356.804C522.779 357.087 522.653 357.43 522.633 357.831H521.216C521.24 357.198 521.43 356.643 521.789 356.166C522.147 355.686 522.615 355.312 523.194 355.045C523.776 354.777 524.416 354.643 525.113 354.643C525.86 354.643 526.502 354.795 527.037 355.098C527.573 355.397 527.984 355.792 528.271 356.284C528.558 356.776 528.702 357.308 528.702 357.879C528.702 358.559 528.523 359.14 528.165 359.62C527.811 360.1 527.328 360.433 526.718 360.618V360.712C527.482 360.838 528.078 361.163 528.507 361.687C528.936 362.206 529.151 362.85 529.151 363.617C529.151 364.274 528.972 364.865 528.614 365.388C528.259 365.908 527.775 366.317 527.161 366.616C526.547 366.915 525.849 367.065 525.065 367.065Z" fill="#14212E" fill-opacity="0.62"/>
<path d="M550.502 354.808V366.9H549.038V356.343H548.967L546.015 358.304V356.816L549.038 354.808H550.502ZM553.696 364.42V363.216L559.01 354.808H559.884V356.674H559.293L555.279 363.027V363.121H562.434V364.42H553.696ZM559.388 366.9V364.054V363.493V354.808H560.781V366.9H559.388Z" fill="#14212E" fill-opacity="0.62"/>
<path d="M583.502 354.808V366.9H582.038V356.343H581.967L579.015 358.304V356.816L582.038 354.808H583.502ZM590.758 367.065C590.066 367.065 589.442 366.927 588.887 366.652C588.332 366.376 587.887 365.998 587.552 365.518C587.218 365.038 587.035 364.491 587.003 363.877H588.42C588.475 364.424 588.723 364.877 589.164 365.235C589.609 365.589 590.14 365.766 590.758 365.766C591.254 365.766 591.695 365.65 592.081 365.418C592.47 365.186 592.775 364.867 592.996 364.461C593.22 364.052 593.332 363.59 593.332 363.074C593.332 362.547 593.216 362.076 592.984 361.663C592.756 361.246 592.441 360.917 592.039 360.677C591.638 360.437 591.179 360.315 590.664 360.311C590.294 360.307 589.914 360.364 589.524 360.482C589.135 360.596 588.814 360.744 588.562 360.925L587.192 360.76L587.924 354.808H594.206V356.107H589.152L588.727 359.673H588.798C589.046 359.476 589.357 359.313 589.731 359.183C590.105 359.053 590.495 358.988 590.9 358.988C591.64 358.988 592.299 359.166 592.878 359.52C593.46 359.87 593.917 360.35 594.248 360.96C594.582 361.57 594.749 362.267 594.749 363.05C594.749 363.822 594.576 364.511 594.23 365.117C593.887 365.719 593.415 366.195 592.813 366.545C592.211 366.892 591.526 367.065 590.758 367.065Z" fill="#14212E" fill-opacity="0.62"/>
<defs>
<linearGradient id="paint0_linear_2604_28431" x1="120.371" y1="201.558" x2="120.371" y2="340.528" gradientUnits="userSpaceOnUse">
<stop stop-color="#2E6AF5"/>
<stop offset="1" stop-color="#2E6AF5" stop-opacity="0.2"/>
</linearGradient>
<linearGradient id="paint1_linear_2604_28431" x1="153.558" y1="184.965" x2="153.558" y2="340.528" gradientUnits="userSpaceOnUse">
<stop stop-color="#2E6AF5"/>
<stop offset="1" stop-color="#2E6AF5" stop-opacity="0.2"/>
</linearGradient>
<linearGradient id="paint2_linear_2604_28431" x1="186.745" y1="129.999" x2="186.745" y2="340.528" gradientUnits="userSpaceOnUse">
<stop stop-color="#2E6AF5"/>
<stop offset="1" stop-color="#2E6AF5" stop-opacity="0.2"/>
</linearGradient>
<linearGradient id="paint3_linear_2604_28431" x1="219.932" y1="184.965" x2="219.932" y2="340.528" gradientUnits="userSpaceOnUse">
<stop stop-color="#2E6AF5"/>
<stop offset="1" stop-color="#2E6AF5" stop-opacity="0.2"/>
</linearGradient>
<linearGradient id="paint4_linear_2604_28431" x1="253.119" y1="258.597" x2="253.119" y2="340.527" gradientUnits="userSpaceOnUse">
<stop stop-color="#2E6AF5"/>
<stop offset="1" stop-color="#2E6AF5" stop-opacity="0.2"/>
</linearGradient>
<linearGradient id="paint5_linear_2604_28431" x1="286.306" y1="184.965" x2="286.306" y2="340.528" gradientUnits="userSpaceOnUse">
<stop stop-color="#2E6AF5"/>
<stop offset="1" stop-color="#2E6AF5" stop-opacity="0.2"/>
</linearGradient>
<linearGradient id="paint6_linear_2604_28431" x1="319.493" y1="207.781" x2="319.493" y2="340.528" gradientUnits="userSpaceOnUse">
<stop stop-color="#2E6AF5"/>
<stop offset="1" stop-color="#2E6AF5" stop-opacity="0.2"/>
</linearGradient>
<linearGradient id="paint7_linear_2604_28431" x1="352.679" y1="184.965" x2="352.679" y2="340.528" gradientUnits="userSpaceOnUse">
<stop stop-color="#2E6AF5"/>
<stop offset="1" stop-color="#2E6AF5" stop-opacity="0.2"/>
</linearGradient>
<linearGradient id="paint8_linear_2604_28431" x1="385.866" y1="226.448" x2="385.866" y2="340.528" gradientUnits="userSpaceOnUse">
<stop stop-color="#2E6AF5"/>
<stop offset="1" stop-color="#2E6AF5" stop-opacity="0.2"/>
</linearGradient>
<linearGradient id="paint9_linear_2604_28431" x1="419.053" y1="184.965" x2="419.053" y2="340.528" gradientUnits="userSpaceOnUse">
<stop stop-color="#2E6AF5"/>
<stop offset="1" stop-color="#2E6AF5" stop-opacity="0.2"/>
</linearGradient>
<linearGradient id="paint10_linear_2604_28431" x1="452.24" y1="158" x2="452.24" y2="340.528" gradientUnits="userSpaceOnUse">
<stop stop-color="#2E6AF5"/>
<stop offset="1" stop-color="#2E6AF5" stop-opacity="0.2"/>
</linearGradient>
<linearGradient id="paint11_linear_2604_28431" x1="485.426" y1="201.558" x2="485.426" y2="340.528" gradientUnits="userSpaceOnUse">
<stop stop-color="#2E6AF5"/>
<stop offset="1" stop-color="#2E6AF5" stop-opacity="0.2"/>
</linearGradient>
<linearGradient id="paint12_linear_2604_28431" x1="518.613" y1="184.965" x2="518.613" y2="340.528" gradientUnits="userSpaceOnUse">
<stop stop-color="#2E6AF5"/>
<stop offset="1" stop-color="#2E6AF5" stop-opacity="0.2"/>
</linearGradient>
<linearGradient id="paint13_linear_2604_28431" x1="551.8" y1="163.186" x2="551.8" y2="340.528" gradientUnits="userSpaceOnUse">
<stop stop-color="#2E6AF5"/>
<stop offset="1" stop-color="#2E6AF5" stop-opacity="0.2"/>
</linearGradient>
<linearGradient id="paint14_linear_2604_28431" x1="584.986" y1="184.965" x2="584.986" y2="340.528" gradientUnits="userSpaceOnUse">
<stop stop-color="#2E6AF5"/>
<stop offset="1" stop-color="#2E6AF5" stop-opacity="0.2"/>
</linearGradient>
</defs>
</svg>
