<svg width="48" height="48" viewBox="0 0 48 48" fill="none" xmlns="http://www.w3.org/2000/svg">
<g clip-path="url(#clip0_3567_29621)">
<path d="M16.9453 27.9443C16.9453 27.9443 13.9463 22.1715 13.9463 16.3357C13.9463 9.47716 18.8618 7.80225 22.7942 7.80225C26.7267 7.80225 31.6422 9.47716 31.6422 16.3357C31.6422 22.1715 28.6432 27.9443 28.6432 27.9443" stroke="#052161" stroke-width="1.98607" stroke-linecap="round"/>
<path d="M13.5156 32.6711H16.594C16.594 32.6711 25.3625 32.6711 25.3625 23.1579C25.3625 15.9484 22.9594 16.2827 22.9594 16.2827C22.9594 16.2827 20.5562 15.9451 20.5562 23.1579C20.5562 32.6711 29.3247 32.6711 29.3247 32.6711H32.0721" stroke="#1659F3" stroke-width="1.98607" stroke-linecap="round"/>
<path d="M30.3643 34.7531V30.4003C30.3643 30.0759 30.7151 29.874 30.9932 30.0362L34.7634 32.211C35.0448 32.3732 35.0448 32.777 34.7634 32.9392L30.9932 35.1139C30.7118 35.2761 30.3643 35.0742 30.3643 34.7498V34.7531Z" fill="#1659F3"/>
<path d="M19.0703 35.0083H26.5181" stroke="#052161" stroke-width="0.993035" stroke-linecap="round"/>
<path d="M19.9209 37.603H25.6706" stroke="#052161" stroke-width="0.993035" stroke-linecap="round"/>
<path d="M20.9268 40.1948H24.6639" stroke="#052161" stroke-width="0.993035" stroke-linecap="round"/>
</g>
<defs>
<clipPath id="clip0_3567_29621">
<rect width="48" height="48" fill="white"/>
</clipPath>
</defs>
</svg>
